<?xml version="1.0" encoding="UTF-8"?>
<svg width="40px" height="40px" viewBox="0 0 40 40" version="1.1" xmlns="http://www.w3.org/2000/svg" xmlns:xlink="http://www.w3.org/1999/xlink">
    <!-- Generator: Sketch 56.1 (81669) - https://sketch.com -->
    <title>icon / Alert / Error</title>
    <desc>Created with Sketch.</desc>
    <g id="icon-/-Alert-/-Error" stroke="none" stroke-width="1" fill="none" fill-rule="evenodd">
        <g id="Group-10">
            <circle id="Oval" cx="20" cy="20" r="20"></circle>
            <path d="M34.5833333,19.9904933 C34.5833333,28.0394095 28.0541667,34.5643199 20,34.5643199 C11.9458333,34.5643199 5.41666667,28.0394095 5.41666667,19.9904933 C5.41666667,11.941577 11.9458333,5.41666667 20,5.41666667 C28.0541667,5.41666667 34.5833333,11.941577 34.5833333,19.9904933 Z" id="Stroke-295" stroke="#FC5D49" stroke-width="2" stroke-linecap="round" stroke-linejoin="round"></path>
            <path d="M19.2109375,22.53125 L19.2109375,22.03125 C19.2109375,21.4583305 19.3151031,20.9817727 19.5234375,20.6015625 C19.7317719,20.2213523 20.0963516,19.828127 20.6171875,19.421875 C21.2369823,18.9322892 21.6367179,18.5520847 21.8164062,18.28125 C21.9960946,18.0104153 22.0859375,17.6875019 22.0859375,17.3125 C22.0859375,16.8749978 21.9401056,16.5390637 21.6484375,16.3046875 C21.3567694,16.0703113 20.9375027,15.953125 20.390625,15.953125 C19.8958309,15.953125 19.4375021,16.0234368 19.015625,16.1640625 C18.5937479,16.3046882 18.1822937,16.4739573 17.78125,16.671875 L17.125,15.296875 C18.182297,14.7083304 19.3150981,14.4140625 20.5234375,14.4140625 C21.5442759,14.4140625 22.3541637,14.66406 22.953125,15.1640625 C23.5520863,15.664065 23.8515625,16.3541623 23.8515625,17.234375 C23.8515625,17.625002 23.7942714,17.9726547 23.6796875,18.2773438 C23.5651036,18.5820328 23.3919282,18.8723945 23.1601562,19.1484375 C22.9283843,19.4244805 22.5286487,19.783852 21.9609375,20.2265625 C21.4765601,20.6067727 21.1523446,20.9218737 20.9882812,21.171875 C20.8242179,21.4218763 20.7421875,21.7578104 20.7421875,22.1796875 L20.7421875,22.53125 L19.2109375,22.53125 Z M18.890625,25.0234375 C18.890625,24.2369752 19.2734337,23.84375 20.0390625,23.84375 C20.4140644,23.84375 20.7005198,23.9466136 20.8984375,24.1523438 C21.0963552,24.3580739 21.1953125,24.6484356 21.1953125,25.0234375 C21.1953125,25.393231 21.0950531,25.6861968 20.8945312,25.9023438 C20.6940094,26.1184907 20.408856,26.2265625 20.0390625,26.2265625 C19.669269,26.2265625 19.3854177,26.1210948 19.1875,25.9101562 C18.9895823,25.6992177 18.890625,25.4036477 18.890625,25.0234375 Z" id="?" fill="#FC5D49" fill-rule="nonzero"></path>
        </g>
    </g>
</svg>