<?xml version="1.0" encoding="UTF-8"?>
<svg width="40px" height="40px" viewBox="0 0 40 40" version="1.1" xmlns="http://www.w3.org/2000/svg" xmlns:xlink="http://www.w3.org/1999/xlink">
    <!-- Generator: Sketch 56.1 (81669) - https://sketch.com -->
    <title>icon / Alert / Warning</title>
    <desc>Created with Sketch.</desc>
    <g id="icon-/-Alert-/-Warning" stroke="none" stroke-width="1" fill="none" fill-rule="evenodd">
        <g id="Group-9">
            <g id="Group-8">
                <circle id="Oval-Copy" cx="20" cy="20" r="20"></circle>
                <g id="Group-4" transform="translate(20.678571, 20.500000) rotate(-330.000000) translate(-20.678571, -20.500000) translate(10.000000, 9.000000)" stroke="#FF8E20" stroke-linecap="round" stroke-linejoin="round" stroke-width="2">
                    <path d="M13.1428571,18.9303408 C13.1428571,20.7428728 11.6708571,22.2139132 9.85714286,22.2139132 C8.04342857,22.2139132 6.57142857,20.7428728 6.57142857,18.9303408" id="Stroke-210"></path>
                    <path d="M3.28615208,6.56714472 C3.28615208,2.94043905 6.22850922,0 9.85758065,0 C13.4866521,0 16.4290092,2.94043905 16.4290092,6.56714472 L16.4290092,11.4925033 L19.6112235,17.0795016 C19.8806521,17.6180075 19.6079378,18.059648 19.0050092,18.059648 L0.710152075,18.059648 C0.107223504,18.059648 -0.165490782,17.6180075 0.10393779,17.0795016 L3.28615208,11.4925033 L3.28615208,6.56714472 Z" id="Stroke-211"></path>
                </g>
            </g>
        </g>
    </g>
</svg>
