<svg id="Layer_1" data-name="Layer 1" xmlns="http://www.w3.org/2000/svg" xmlns:xlink="http://www.w3.org/1999/xlink" viewBox="0 0 217.45 301.31"><defs><style>.cls-1,.cls-13,.cls-6,.cls-7,.cls-8,.cls-9{fill:none;}.cls-2{fill:#daecfa;}.cls-14,.cls-3{fill:#fff;}.cls-4{fill:url(#_10_dpi_10_2);}.cls-5{fill:url(#_10_dpi_10_);}.cls-13,.cls-14,.cls-6,.cls-7,.cls-8,.cls-9{stroke:#3266ff;}.cls-13,.cls-6,.cls-7,.cls-9{stroke-linecap:round;stroke-linejoin:round;}.cls-7{stroke-dasharray:3.93 3.93;}.cls-14,.cls-8{stroke-miterlimit:10;}.cls-9{stroke-dasharray:4 4;}.cls-10{fill:#f6f6f8;}.cls-11{fill:#c4e1f7;}.cls-12{fill:url(#_10_dpi_20_);}.cls-13{stroke-width:4px;}.cls-15{fill:#3266ff;}</style><pattern id="_10_dpi_10_2" data-name="10 dpi 10% 2" width="28.8" height="28.8" patternTransform="translate(2.89 21.99)" patternUnits="userSpaceOnUse" viewBox="0 0 28.8 28.8"><rect class="cls-1" width="28.8" height="28.8"/><circle class="cls-3" cx="28.8" cy="28.8" r="0.72"/><circle class="cls-3" cx="14.4" cy="28.8" r="0.72"/><circle class="cls-3" cx="28.8" cy="14.4" r="0.72"/><circle class="cls-3" cx="14.4" cy="14.4" r="0.72"/><circle class="cls-3" cx="7.2" cy="21.6" r="0.72"/><circle class="cls-3" cx="21.6" cy="21.6" r="0.72"/><circle class="cls-3" cx="7.2" cy="7.2" r="0.72"/><circle class="cls-3" cx="21.6" cy="7.2" r="0.72"/><circle class="cls-3" cy="28.8" r="0.72"/><circle class="cls-3" cy="14.4" r="0.72"/><circle class="cls-3" cx="28.8" r="0.72"/><circle class="cls-3" cx="14.4" r="0.72"/><circle class="cls-3" r="0.72"/></pattern><pattern id="_10_dpi_10_" data-name="10 dpi 10%" width="28.8" height="28.8" patternTransform="translate(-5.53 7.29)" patternUnits="userSpaceOnUse" viewBox="0 0 28.8 28.8"><rect class="cls-1" width="28.8" height="28.8"/><circle class="cls-2" cx="28.8" cy="28.8" r="0.72"/><circle class="cls-2" cx="14.4" cy="28.8" r="0.72"/><circle class="cls-2" cx="28.8" cy="14.4" r="0.72"/><circle class="cls-2" cx="14.4" cy="14.4" r="0.72"/><circle class="cls-2" cx="7.2" cy="21.6" r="0.72"/><circle class="cls-2" cx="21.6" cy="21.6" r="0.72"/><circle class="cls-2" cx="7.2" cy="7.2" r="0.72"/><circle class="cls-2" cx="21.6" cy="7.2" r="0.72"/><circle class="cls-2" cy="28.8" r="0.72"/><circle class="cls-2" cy="14.4" r="0.72"/><circle class="cls-2" cx="28.8" r="0.72"/><circle class="cls-2" cx="14.4" r="0.72"/><circle class="cls-2" r="0.72"/></pattern><pattern id="_10_dpi_20_" data-name="10 dpi 20%" width="28.8" height="28.8" patternTransform="translate(-28.8 21.99)" patternUnits="userSpaceOnUse" viewBox="0 0 28.8 28.8"><rect class="cls-1" width="28.8" height="28.8"/><circle class="cls-3" cx="28.8" cy="28.8" r="1.44"/><circle class="cls-3" cx="14.4" cy="28.8" r="1.44"/><circle class="cls-3" cx="28.8" cy="14.4" r="1.44"/><circle class="cls-3" cx="14.4" cy="14.4" r="1.44"/><circle class="cls-3" cx="7.2" cy="21.6" r="1.44"/><circle class="cls-3" cx="21.6" cy="21.6" r="1.44"/><circle class="cls-3" cx="7.2" cy="7.2" r="1.44"/><circle class="cls-3" cx="21.6" cy="7.2" r="1.44"/><circle class="cls-3" cy="28.8" r="1.44"/><circle class="cls-3" cy="14.4" r="1.44"/><circle class="cls-3" cx="28.8" r="1.44"/><circle class="cls-3" cx="14.4" r="1.44"/><circle class="cls-3" r="1.44"/></pattern></defs><title>404</title><path class="cls-2" d="M2.53,233V63.1l6.76,1.84L2.53,58.18V23l179.63-1-4.3,6.14,9.63-6.14h27.45V176.16s-5.74,2.25-6.35,3.07,6.35-1.84,6.35,5.94v54.6s-5.12-3.07-5.74-4.92-5.53.82-5.53,0.82-4.92.61-7.17-1.23-4.92,3.55-4.92,3.55l2.25,52.77H168.64l-4.71-60.54,1,65-25.19,1.43-2.66-60.88,0.2,54.6-25.4,3.28L110.67,230l-1.95,68.39H83.23l-0.61-62.86-2.66,59.06-26-1.64,1.64-37.82S50.45,255,49,256.6s-3.07,4.1-6.35,4.1-6.76-4.1-8.4-4.92-5.12.61-5.12,0.61V233.92l-3.28,4.42s-5.53-2-6.55-4.3-7.58.82-8.19,1.84S2.53,239.34,2.53,233Z"/><path class="cls-4" d="M2.53,233V63.1l6.76,1.84L2.53,58.18V23l179.63-1-4.3,6.14,9.63-6.14h27.45V176.16s-5.74,2.25-6.35,3.07,6.35-1.84,6.35,5.94v54.6s-5.12-3.07-5.74-4.92-5.53.82-5.53,0.82-4.92.61-7.17-1.23-4.92,3.55-4.92,3.55l2.25,52.77H168.64l-4.71-60.54,1,65-25.19,1.43-2.66-60.88,0.2,54.6-25.4,3.28L110.67,230l-1.95,68.39H83.23l-0.61-62.86-2.66,59.06-26-1.64,1.64-37.82S50.45,255,49,256.6s-3.07,4.1-6.35,4.1-6.76-4.1-8.4-4.92-5.12.61-5.12,0.61V233.92l-3.28,4.42s-5.53-2-6.55-4.3-7.58.82-8.19,1.84S2.53,239.34,2.53,233Z"/><polygon class="cls-2" points="214.93 194.65 2.52 194.65 2.52 13.96 214.93 12.93 214.93 194.65"/><path class="cls-3" d="M2.53,229V54.1l6.76,1.84L2.53,49.18V14l179.63-1-4.3,6.14,9.63-6.14h27.45V167.16s-5.74,2.25-6.35,3.07,6.35-1.84,6.35,5.94v59.6s-5.12-3.07-5.74-4.92-5.53.82-5.53,0.82-4.92.61-7.17-1.23a6.83,6.83,0,0,0-4.92-1.45l2.25,57.77H168.64l-4.71-65.54,1,67-25.19,1.43-2.66-62.88,0.2,59.6-25.4,3.28L110.67,221l-1.95,67.39H83.23l-0.61-61.86-2.66,62.06-26-1.64,1.64-51.82S50.45,235,49,236.6s-3.07,4.1-6.35,4.1-6.76-4.1-8.4-4.92-5.12.61-5.12,0.61V224.92l-3.28,9.42s-5.53-2-6.55-4.3-7.58.82-8.19,1.84S2.53,235.34,2.53,229Z"/><path class="cls-5" d="M2.53,229V54.1l6.76,1.84L2.53,49.18V14l179.63-1-4.3,6.14,9.63-6.14h27.45V167.16s-5.74,2.25-6.35,3.07,6.35-1.84,6.35,5.94v59.6s-5.12-3.07-5.74-4.92-5.53.82-5.53,0.82-4.92.61-7.17-1.23a6.83,6.83,0,0,0-4.92-1.45l2.25,57.77H168.64l-4.71-65.54,1,67-25.19,1.43-2.66-62.88,0.2,59.6-25.4,3.28L110.67,221l-1.95,67.39H83.23l-0.61-61.86-2.66,62.06-26-1.64,1.64-51.82S50.45,235,49,236.6s-3.07,4.1-6.35,4.1-6.76-4.1-8.4-4.92-5.12.61-5.12,0.61V224.92l-3.28,9.42s-5.53-2-6.55-4.3-7.58.82-8.19,1.84S2.53,235.34,2.53,229Z"/><line class="cls-6" x1="2.53" y1="221.92" x2="4.53" y2="221.92"/><line class="cls-7" x1="8.46" y1="221.92" x2="210.96" y2="221.92"/><line class="cls-6" x1="212.93" y1="221.92" x2="214.93" y2="221.92"/><line class="cls-8" x1="175.26" y1="236.8" x2="177.44" y2="279.13"/><line class="cls-9" x1="181.11" y1="243.9" x2="183.29" y2="272.03"/><line class="cls-8" x1="148.22" y1="238.44" x2="148.22" y2="279.13"/><line class="cls-9" x1="153.96" y1="243.9" x2="153.96" y2="272.03"/><line class="cls-8" x1="122" y1="236.8" x2="122" y2="279.13"/><line class="cls-9" x1="126.07" y1="243.9" x2="127.19" y2="272.03"/><line class="cls-8" x1="93.6" y1="238.44" x2="93.6" y2="279.13"/><line class="cls-9" x1="98.52" y1="243.9" x2="98.52" y2="272.03"/><line class="cls-8" x1="68.2" y1="235.44" x2="65.47" y2="279.13"/><line class="cls-9" x1="72.03" y1="242.81" x2="70.94" y2="272.03"/><line class="cls-8" x1="191.58" y1="229" x2="191.37" y2="221.92"/><rect class="cls-10" x="27.79" y="66.94" width="164.13" height="109.24" rx="2" ry="2"/><path class="cls-11" d="M83.23,2.9l55.71,4.3v3.89l-1.84,1.84,1.84,1.84v7S90.6,20.92,87.32,20.1s-5.12-4.92-5.12-4.92l3.48-2.87L83.43,9l1.64-2.87Z"/><path class="cls-12" d="M83.23,2.9l55.71,4.3v3.89l-1.84,1.84,1.84,1.84v7S90.6,20.92,87.32,20.1s-5.12-4.92-5.12-4.92l3.48-2.87L83.43,9l1.64-2.87Z"/><path class="cls-8" d="M83.23,2.9l55.71,4.3v3.89l-1.84,1.84,1.84,1.84v7S90.6,20.92,87.32,20.1s-5.12-4.92-5.12-4.92l3.48-2.87L83.43,9l1.64-2.87Z"/><rect class="cls-8" x="27.79" y="66.94" width="164.13" height="109.24" rx="2" ry="2"/><line class="cls-13" x1="55.92" y1="194.65" x2="163.24" y2="194.65"/><line class="cls-13" x1="110.85" y1="85.05" x2="176.35" y2="85.05"/><line class="cls-13" x1="110.85" y1="125.05" x2="176.35" y2="125.05"/><line class="cls-13" x1="110.85" y1="105.05" x2="176.35" y2="105.05"/><line class="cls-6" x1="76.12" y1="203.93" x2="143.03" y2="203.93"/><rect class="cls-14" x="43.91" y="145.05" width="132.44" height="31.12"/><rect class="cls-5" x="43.91" y="145.05" width="132.44" height="31.12"/><rect class="cls-8" x="43.91" y="145.05" width="132.44" height="31.12"/><circle class="cls-15" cx="88.36" cy="157.27" r="3.14"/><circle class="cls-15" cx="131.9" cy="157.27" r="3.14"/><path class="cls-15" d="M126.35,167.09s-0.48-.17-1.31-0.39c-0.42-.11-0.93-0.23-1.52-0.33l-0.94-.15c-0.33,0-.66-0.18-1-0.25a49.12,49.12,0,0,0-10.71-1.1,57.69,57.69,0,0,0-5.77.29,41.87,41.87,0,0,0-5,.81,15.26,15.26,0,0,1-2,.4c-0.59.11-1.1,0.23-1.52,0.33-0.83.22-1.31,0.39-1.31,0.39l0.3-.2a10,10,0,0,1,.87-0.54c0.39-.21.87-0.45,1.43-0.7l0.91-.38a9.87,9.87,0,0,1,1.05-.27,42.86,42.86,0,0,1,5.07-.83c1.86-.19,3.88-0.3,5.86-0.3A50.08,50.08,0,0,1,121.79,165c0.36,0.1.73,0.14,1.05,0.26l0.91,0.39c0.56,0.25,1,.5,1.43.71a9.31,9.31,0,0,1,.87.54Z"/><path class="cls-15" d="M93.41,56.59h-3V51H78.12V48.59l9.39-15.34h3.17l-9.4,15.34h9.12V40.3h3v8.29l2.42,1.24V51H93.41v5.55Z"/><path class="cls-15" d="M98.85,44.95q0-11.87,10.09-11.87,9.91,0,9.91,11.87t-9.91,11.8Q98.85,56.75,98.85,44.95Zm10.09,9.35q6.72,0,6.73-9.45t-6.73-9.32q-6.9,0-6.9,9.32T108.94,54.3Z"/><path class="cls-15" d="M136.91,56.59h-3V51H121.62V48.59L131,33.24h3.17l-9.4,15.34h9.12V40.3h3v8.29l2.42,1.24V51h-2.42v5.55Z"/><path class="cls-14" d="M63.74,89.14A14.87,14.87,0,0,1,78.61,104v0l7.84,5.49A23.37,23.37,0,0,0,44.6,90.61l7,4.87A14.85,14.85,0,0,1,63.74,89.14Z"/><path class="cls-14" d="M75.92,112.54h0A14.87,14.87,0,0,1,48.87,104v0L41,98.49a23.37,23.37,0,0,0,35.67,25l4.09,2.86H95.6Z"/><path class="cls-8" d="M2.53,229V54.1l6.76,1.84L2.53,49.18V14l179.63-1-4.3,6.14,9.63-6.14h27.45V167.16s-5.74,2.25-6.35,3.07,6.35-1.84,6.35,5.94v59.6s-5.12-3.07-5.74-4.92-5.53.82-5.53,0.82-4.92.61-7.17-1.23a6.83,6.83,0,0,0-4.92-1.45l2.25,57.77H168.64l-4.71-65.54,1,67-25.19,1.43-2.66-62.88,0.2,59.6-25.4,3.28L110.67,221l-1.95,67.39H83.23l-0.61-61.86-2.66,62.06-26-1.64,1.64-51.82S50.45,235,49,236.6s-3.07,4.1-6.35,4.1-6.76-4.1-8.4-4.92-5.12.61-5.12,0.61V224.92l-3.28,9.42s-5.53-2-6.55-4.3-7.58.82-8.19,1.84S2.53,235.34,2.53,229Z"/></svg>