<?xml version="1.0" encoding="UTF-8"?>
<svg width="40px" height="40px" viewBox="0 0 40 40" version="1.1" xmlns="http://www.w3.org/2000/svg" xmlns:xlink="http://www.w3.org/1999/xlink">
    <!-- Generator: Sketch 61 (89581) - https://sketch.com -->
    <title>Group 10</title>
    <desc>Created with Sketch.</desc>
    <g id="Brand" stroke="none" stroke-width="1" fill="none" fill-rule="evenodd">
        <g id="Group-10">
            <circle id="Oval" fill="#3366FF" cx="20" cy="20" r="20"></circle>
            <path d="M28.6304861,28.3359938 C28.8239917,28.1357569 29.0105913,27.9288171 29.1898881,27.7155548 L29.451,27.393 L29.4533065,27.3909668 L29.705,27.057 L29.6935987,27.0745026 C29.6977916,27.0687706 29.7019796,27.0630348 29.7061626,27.0572952 L29.757,26.984 L29.71,27.05 L29.924,26.746 L29.9469091,26.7145892 L31.3296364,28.0978772 C32.2228182,28.9905235 32.2228182,30.4379031 31.3296364,31.3302767 C30.4372727,32.2231957 28.991,32.2231957 28.0978182,31.3305494 L28.0978182,31.3305494 L26.7142727,29.9467159 C26.7183301,29.9439703 26.7223858,29.9412223 26.7264397,29.9384719 C24.8083359,31.2398855 22.4929929,32 20,32 C13.3724545,32 8,26.6274791 8,19.9998602 C8,17.5125599 8.75709091,15.2019889 10.0528182,13.2857858 L10.0528182,13.2857858 L13.3893636,16.6223683 C12.8698182,17.6363795 12.5714545,18.7823922 12.5714545,19.9998602 C12.5714545,24.1028148 15.8970909,27.4287607 20.0002727,27.4287607 C21.2177273,27.4287607 22.3637273,27.130121 23.3777273,26.6108426 L23.3777273,26.6108426 L26.7131818,29.9468795 C27.0602397,29.7119844 27.3944365,29.4594406 27.7144335,29.1905318 L28.029,28.916 L28.0105563,28.934109 C28.0283504,28.9181434 28.0460967,28.9021254 28.063795,28.8860553 L28.029,28.916 L28.335,28.631 Z M20.0002727,8 C26.6275455,8 32,13.3722413 32,19.9998602 C32,22.446981 31.2676031,24.7229926 30.010027,26.6206333 L29.946,26.714 L26.6103636,23.3789886 C27.0829256,22.4566643 27.3726927,21.4254733 27.4214722,20.330495 L27.4288182,20.000133 C27.4288182,15.8971784 24.1031818,12.5712325 20.0002727,12.5712325 C18.782,12.5712325 17.6357273,12.8695994 16.6211818,13.3896961 L16.6211818,13.3896961 L13.2851818,10.0533864 C15.2013636,8.7570993 17.5124545,8 20.0002727,8 Z" id="Combined-Shape" fill="#FFFFFF"></path>
        </g>
    </g>
</svg>