<?xml version="1.0" encoding="UTF-8"?>
<svg width="12px" height="14px" viewBox="0 0 12 14" version="1.1" xmlns="http://www.w3.org/2000/svg" xmlns:xlink="http://www.w3.org/1999/xlink">
    <!-- Generator: Sketch 52.5 (67469) - http://www.bohemiancoding.com/sketch -->
    <title>delete copy</title>
    <desc>Created with Sketch.</desc>
    <g id="Flow" stroke="none" stroke-width="1" fill="none" fill-rule="evenodd">
        <g id="5-Invitations" transform="translate(-1255.000000, -428.000000)" fill="#757575" fill-rule="nonzero">
            <g id="Group-10" transform="translate(140.000000, 399.000000)">
                <g id="Group-11-Copy-4" transform="translate(1102.000000, 16.000000)">
                    <g id="Group-16">
                        <g id="Group-5">
                            <g id="delete-copy" transform="translate(13.000000, 13.000000)">
                                <path d="M11.3384536,2.5206075 L8.67881262,2.5206075 L8.67881262,2.03067653 C8.67881262,0.910828402 7.76893688,0.000952662722 6.57910256,0.000952662722 L5.45925444,0.000952662722 C4.26942012,0.000952662722 3.35954438,0.910828402 3.35954438,2.03067653 L3.35954438,2.5206075 L0.699903353,2.5206075 C0.27995858,2.5206075 -5.68434189e-14,2.80056607 -5.68434189e-14,3.22051085 C-5.68434189e-14,3.64045562 0.27995858,3.9204142 0.699903353,3.9204142 L1.25982051,3.9204142 L2.30968245,12.669213 C2.37966864,13.4391026 3.0095858,13.9990335 3.77947535,13.9990335 L8.25886785,13.9990335 C9.0287574,13.9990335 9.65867456,13.4391164 9.72866075,12.669213 L10.7785227,3.9204142 L11.3384398,3.9204142 C11.7583846,3.9204142 12.0383432,3.64045562 12.0383432,3.22051085 C12.0383432,2.80056607 11.6883846,2.5206075 11.3384398,2.5206075 L11.3384536,2.5206075 Z M4.75935108,2.03067653 C4.75935108,1.68071795 5.10930966,1.40075937 5.45925444,1.40075937 L6.57910256,1.40075937 C6.92906114,1.40075937 7.27900592,1.68071795 7.27900592,2.03067653 L7.27900592,2.5206075 L4.75935108,2.5206075 L4.75935108,2.03067653 Z M8.32886785,12.5292406 C8.32886785,12.5292406 8.25888166,12.5992268 8.25888166,12.5992268 L3.77948915,12.5992268 C3.77948915,12.5992268 3.70950296,12.5292406 3.70950296,12.5292406 L2.65964103,3.9204142 L9.30872978,3.9204142 L8.32886785,12.5292406 Z" id="Shape"></path>
                            </g>
                        </g>
                    </g>
                </g>
            </g>
        </g>
    </g>
</svg>