<?xml version="1.0" encoding="UTF-8"?>
<svg width="801px" height="1024px" viewBox="0 0 801 1024" version="1.1" xmlns="http://www.w3.org/2000/svg" xmlns:xlink="http://www.w3.org/1999/xlink">
    <!-- Generator: Sketch 49.1 (51147) - http://www.bohemiancoding.com/sketch -->
    <title>Artboard</title>
    <desc>Created with Sketch.</desc>
    <defs></defs>
    <g id="Artboard" stroke="none" stroke-width="1" fill="none" fill-rule="evenodd" opacity="0.302026721">
        <g id="Group-3-Copy-4" transform="translate(129.000000, 47.000000)" fill="#FFFFFF">
            <path d="M50.6628604,485 L-17,485 L-17,404 L50.6628604,404 L50.6628604,418.072503 L7.91150442,418.072503 L7.91150442,435.857045 L47.6895518,435.857045 L47.6895518,449.929549 L7.91150442,449.929549 L7.91150442,470.816689 L50.6628604,470.816689 L50.6628604,485 Z M172.648872,443.72435 C172.648872,457.058206 167.144289,467.270826 156.134956,474.362517 C145.125623,481.454208 129.227956,485 108.441479,485 L75.1725664,485 L75.1725664,404 L112.057665,404 C131.236941,404 146.130121,407.490389 156.737653,414.471272 C167.345186,421.452155 172.648872,431.203084 172.648872,443.72435 Z M146.773052,444.167579 C146.773052,426.770775 135.629953,418.072503 113.34342,418.072503 L100.084071,418.072503 L100.084071,470.816689 L110.77191,470.816689 C134.772791,470.816689 146.773052,461.933741 146.773052,444.167579 Z M240.95461,485 L187.515415,485 L187.515415,475.248974 L201.81944,470.705882 L201.81944,418.294118 L187.515415,413.751026 L187.515415,404 L240.95461,404 L240.95461,413.751026 L226.650585,418.294118 L226.650585,470.705882 L240.95461,475.248974 L240.95461,485 Z M306.367399,485 L281.455895,485 L281.455895,418.294118 L249.553097,418.294118 L249.553097,404 L338.270197,404 L338.270197,418.294118 L306.367399,418.294118 L306.367399,485 Z M424.013988,485 L356.351128,485 L356.351128,404 L424.013988,404 L424.013988,418.072503 L381.262632,418.072503 L381.262632,435.857045 L421.040679,435.857045 L421.040679,449.929549 L381.262632,449.929549 L381.262632,470.816689 L424.013988,470.816689 L424.013988,485 Z M546,443.72435 C546,457.058206 540.495416,467.270826 529.486083,474.362517 C518.476751,481.454208 502.579084,485 481.792606,485 L448.523694,485 L448.523694,404 L485.408792,404 C504.588068,404 519.481249,407.490389 530.088781,414.471272 C540.696313,421.452155 546,431.203084 546,443.72435 Z M520.124179,444.167579 C520.124179,426.770775 508.98108,418.072503 486.694548,418.072503 L473.435198,418.072503 L473.435198,470.816689 L484.123037,470.816689 C508.123919,470.816689 520.124179,461.933741 520.124179,444.167579 Z" id="EDITED-Copy-2" transform="translate(264.500000, 444.500000) rotate(-30.000000) translate(-264.500000, -444.500000) "></path>
            <path d="M50.6628604,217 L-17,217 L-17,136 L50.6628604,136 L50.6628604,150.072503 L7.91150442,150.072503 L7.91150442,167.857045 L47.6895518,167.857045 L47.6895518,181.929549 L7.91150442,181.929549 L7.91150442,202.816689 L50.6628604,202.816689 L50.6628604,217 Z M172.648872,175.72435 C172.648872,189.058206 167.144289,199.270826 156.134956,206.362517 C145.125623,213.454208 129.227956,217 108.441479,217 L75.1725664,217 L75.1725664,136 L112.057665,136 C131.236941,136 146.130121,139.490389 156.737653,146.471272 C167.345186,153.452155 172.648872,163.203084 172.648872,175.72435 Z M146.773052,176.167579 C146.773052,158.770775 135.629953,150.072503 113.34342,150.072503 L100.084071,150.072503 L100.084071,202.816689 L110.77191,202.816689 C134.772791,202.816689 146.773052,193.933741 146.773052,176.167579 Z M240.95461,217 L187.515415,217 L187.515415,207.248974 L201.81944,202.705882 L201.81944,150.294118 L187.515415,145.751026 L187.515415,136 L240.95461,136 L240.95461,145.751026 L226.650585,150.294118 L226.650585,202.705882 L240.95461,207.248974 L240.95461,217 Z M306.367399,217 L281.455895,217 L281.455895,150.294118 L249.553097,150.294118 L249.553097,136 L338.270197,136 L338.270197,150.294118 L306.367399,150.294118 L306.367399,217 Z M424.013988,217 L356.351128,217 L356.351128,136 L424.013988,136 L424.013988,150.072503 L381.262632,150.072503 L381.262632,167.857045 L421.040679,167.857045 L421.040679,181.929549 L381.262632,181.929549 L381.262632,202.816689 L424.013988,202.816689 L424.013988,217 Z M546,175.72435 C546,189.058206 540.495416,199.270826 529.486083,206.362517 C518.476751,213.454208 502.579084,217 481.792606,217 L448.523694,217 L448.523694,136 L485.408792,136 C504.588068,136 519.481249,139.490389 530.088781,146.471272 C540.696313,153.452155 546,163.203084 546,175.72435 Z M520.124179,176.167579 C520.124179,158.770775 508.98108,150.072503 486.694548,150.072503 L473.435198,150.072503 L473.435198,202.816689 L484.123037,202.816689 C508.123919,202.816689 520.124179,193.933741 520.124179,176.167579 Z" id="EDITED-Copy-4" transform="translate(264.500000, 176.500000) rotate(-30.000000) translate(-264.500000, -176.500000) "></path>
            <path d="M50.6628604,754 L-17,754 L-17,673 L50.6628604,673 L50.6628604,687.072503 L7.91150442,687.072503 L7.91150442,704.857045 L47.6895518,704.857045 L47.6895518,718.929549 L7.91150442,718.929549 L7.91150442,739.816689 L50.6628604,739.816689 L50.6628604,754 Z M172.648872,712.72435 C172.648872,726.058206 167.144289,736.270826 156.134956,743.362517 C145.125623,750.454208 129.227956,754 108.441479,754 L75.1725664,754 L75.1725664,673 L112.057665,673 C131.236941,673 146.130121,676.490389 156.737653,683.471272 C167.345186,690.452155 172.648872,700.203084 172.648872,712.72435 Z M146.773052,713.167579 C146.773052,695.770775 135.629953,687.072503 113.34342,687.072503 L100.084071,687.072503 L100.084071,739.816689 L110.77191,739.816689 C134.772791,739.816689 146.773052,730.933741 146.773052,713.167579 Z M240.95461,754 L187.515415,754 L187.515415,744.248974 L201.81944,739.705882 L201.81944,687.294118 L187.515415,682.751026 L187.515415,673 L240.95461,673 L240.95461,682.751026 L226.650585,687.294118 L226.650585,739.705882 L240.95461,744.248974 L240.95461,754 Z M306.367399,754 L281.455895,754 L281.455895,687.294118 L249.553097,687.294118 L249.553097,673 L338.270197,673 L338.270197,687.294118 L306.367399,687.294118 L306.367399,754 Z M424.013988,754 L356.351128,754 L356.351128,673 L424.013988,673 L424.013988,687.072503 L381.262632,687.072503 L381.262632,704.857045 L421.040679,704.857045 L421.040679,718.929549 L381.262632,718.929549 L381.262632,739.816689 L424.013988,739.816689 L424.013988,754 Z M546,712.72435 C546,726.058206 540.495416,736.270826 529.486083,743.362517 C518.476751,750.454208 502.579084,754 481.792606,754 L448.523694,754 L448.523694,673 L485.408792,673 C504.588068,673 519.481249,676.490389 530.088781,683.471272 C540.696313,690.452155 546,700.203084 546,712.72435 Z M520.124179,713.167579 C520.124179,695.770775 508.98108,687.072503 486.694548,687.072503 L473.435198,687.072503 L473.435198,739.816689 L484.123037,739.816689 C508.123919,739.816689 520.124179,730.933741 520.124179,713.167579 Z" id="EDITED-Copy-3" transform="translate(264.500000, 713.500000) rotate(-30.000000) translate(-264.500000, -713.500000) "></path>
        </g>
    </g>
</svg>