<?xml version="1.0" encoding="UTF-8"?>
<svg width="18px" height="18px" viewBox="0 0 18 18" version="1.1" xmlns="http://www.w3.org/2000/svg" xmlns:xlink="http://www.w3.org/1999/xlink">
    <!-- Generator: Sketch 52.5 (67469) - http://www.bohemiancoding.com/sketch -->
    <title>follow</title>
    <desc>Created with Sketch.</desc>
    <g id="Flow" stroke="none" stroke-width="1" fill="none" fill-rule="evenodd">
        <g id="8-Members" transform="translate(-350.000000, -501.000000)" fill="#4C4C4C" fill-rule="nonzero">
            <g id="Group-19" transform="translate(140.000000, 485.000000)">
                <g id="Group-18" transform="translate(96.000000, 11.000000)">
                    <g id="Group-12">
                        <g id="Group-18-Copy-2" transform="translate(114.000000, 2.000000)">
                            <g id="follow" transform="translate(0.000000, 3.000000)">
                                <path d="M14.2361034,3.01464 L14.9853776,3.01464 L14.9853776,3.76391415 C14.9853776,4.21347512 15.2850907,4.51318829 15.7346517,4.51318829 C16.1842127,4.51318829 16.4839259,4.21347512 16.4839259,3.76391415 L16.4839259,3.01464 L17.2332,3.01464 C17.682761,3.01464 17.9824741,2.71492683 17.9824741,2.26536585 C17.9824741,1.81580488 17.682761,1.51609171 17.2332,1.51609171 L16.4839259,1.51609171 L16.4839259,0.766817561 C16.4839259,0.317256585 16.1842127,0.0175434146 15.7346517,0.0175434146 C15.2850907,0.0175434146 14.9853776,0.317256585 14.9853776,0.766817561 L14.9853776,1.51609171 L14.2361034,1.51609171 C13.7865424,1.51609171 13.4868293,1.81580488 13.4868293,2.26536585 C13.4868293,2.71492683 13.7865424,3.01464 14.2361034,3.01464 Z M17.2331649,8.25950634 C16.7836039,8.25950634 16.4838907,8.55921951 16.4838907,9.00878049 C16.4838907,10.7320917 15.884482,12.4554205 14.7605795,13.8041034 C14.2360859,11.9309268 12.9623356,10.4323961 11.1640917,9.75805463 C12.1381463,9.08371317 12.7375551,7.95981073 12.7375551,6.76097561 C12.7375551,4.66301854 11.089159,3.01464 8.99121951,3.01464 C6.89328,3.01464 5.2448839,4.6630361 5.2448839,6.76097561 C5.2448839,8.03472585 5.84429268,9.08371317 6.81834732,9.75805463 C5.02010341,10.4323961 3.74635317,11.9309268 3.22185951,13.8041034 C2.09795707,12.4554205 1.49854829,10.8070244 1.49854829,9.00878049 C1.49854829,6.9857561 2.24782244,5.11257951 3.67142049,3.68898146 C5.16995122,2.26536585 7.0431278,1.51610927 8.99121951,1.51610927 C9.44078049,1.51610927 9.74049366,1.2163961 9.74049366,0.766835122 C9.74049366,0.317274146 9.44078049,0.0175609756 8.99121951,0.0175609756 C6.66848195,0.0175609756 4.42067707,0.916682927 2.62243317,2.63999415 C0.899121951,4.36330537 0,6.61111024 0,9.00878049 C0,11.4064507 0.899121951,13.654238 2.62243317,15.3775668 C4.34574439,17.1758107 6.66848195,18 8.99121951,18 C11.3139571,18 13.6366771,17.100878 15.3600059,15.3775668 C17.008402,13.7291707 17.982439,11.4064507 17.982439,9.00878049 C17.982439,8.55921951 17.6827259,8.25950634 17.2331649,8.25950634 Z M8.99121951,4.51317073 C10.2649698,4.51317073 11.2390244,5.48722537 11.2390244,6.76097561 C11.2390244,8.03472585 10.2649698,9.00878049 8.99121951,9.00878049 C7.71746927,9.00878049 6.74341463,8.03472585 6.74341463,6.76097561 C6.74341463,5.48722537 7.71746927,4.51317073 8.99121951,4.51317073 Z M4.49560976,15.002921 C4.64545756,12.6801834 6.59356683,10.8819395 8.99121951,10.8819395 C11.3888722,10.8819395 13.2620488,12.6801834 13.4868293,15.002921 C12.213079,15.9769756 10.6396156,16.5014517 8.99121951,16.5014517 C7.34282341,16.5014517 5.76936,15.976958 4.49560976,15.002921 Z" id="Shape"></path>
                            </g>
                        </g>
                    </g>
                </g>
            </g>
        </g>
    </g>
</svg>