<?xml version="1.0" encoding="UTF-8"?>
<svg width="24px" height="24px" viewBox="0 0 24 24" version="1.1" xmlns="http://www.w3.org/2000/svg" xmlns:xlink="http://www.w3.org/1999/xlink">
    <!-- Generator: Sketch 52.3 (67297) - http://www.bohemiancoding.com/sketch -->
    <title>ic_alert</title>
    <desc>Created with Sketch.</desc>
    <g id="ic_alert" stroke="none" stroke-width="1" fill="none" fill-rule="evenodd">
        <rect id="Rectangle" x="0" y="0" width="24" height="24"></rect>
        <path d="M21,12 C21,16.9705714 16.9705714,21 12,21 C7.02942857,21 3,16.9705714 3,12 C3,7.02942857 7.02942857,3 12,3 C16.9705714,3 21,7.02942857 21,12 Z" id="Stroke-301" stroke="#757575" stroke-width="1.5" stroke-linecap="round" stroke-linejoin="round"></path>
        <path d="M12,12 L12,9" id="Stroke-302" stroke="#757575" stroke-width="1.5" stroke-linecap="round" stroke-linejoin="round"></path>
        <path d="M13,15 C13,15.553 12.553,16 12,16 C11.447,16 11,15.553 11,15 C11,14.447 11.447,14 12,14 C12.553,14 13,14.447 13,15" id="Fill-303" fill="#757575"></path>
    </g>
</svg>
