<?xml version="1.0" encoding="UTF-8"?>
<svg width="19px" height="19px" viewBox="0 0 19 19" version="1.1" xmlns="http://www.w3.org/2000/svg" xmlns:xlink="http://www.w3.org/1999/xlink">
    <!-- Generator: Sketch 52.3 (67297) - http://www.bohemiancoding.com/sketch -->
    <title>ic_publication</title>
    <desc>Created with Sketch.</desc>
    <g id="ic_publication" stroke="none" stroke-width="1" fill="none" fill-rule="evenodd">
        <path d="M16.133603,-5.5067062e-14 C17.7055749,-5.5067062e-14 18.9851827,1.27865105 18.9851827,2.85062295 L18.9851827,15.1918571 C18.9851827,16.763829 17.7055749,18.0434368 16.133603,18.0434368 L2.85062295,18.0434368 C1.27865105,18.0434368 -4.13891144e-13,16.763829 -4.13891144e-13,15.1918571 L-4.13891144e-13,2.85062295 C-4.13891144e-13,1.27865105 1.27865105,-5.5067062e-14 2.85062295,-5.5067062e-14 L16.133603,-5.5067062e-14 Z M17.0866511,15.1918571 L17.0866511,2.85062295 C17.0866511,2.32567564 16.6594848,1.89850937 16.133603,1.89850937 L2.85062295,1.89850937 C2.32567564,1.89850937 1.89850937,2.32567564 1.89850937,2.85062295 L1.89850937,15.1918571 C1.89850937,15.7177389 2.32567564,16.1449052 2.85062295,16.1449052 L16.133603,16.1449052 C16.6594848,16.1449052 17.0866511,15.7177389 17.0866511,15.1918571 Z M6.02185422,5.2246863 C6.02185422,5.8390493 5.52380504,6.33709848 4.90944204,6.33709848 C4.29507904,6.33709848 3.79702986,5.8390493 3.79702986,5.2246863 C3.79702986,4.6103233 4.29507904,4.11227412 4.90944204,4.11227412 C5.52380504,4.11227412 6.02185422,4.6103233 6.02185422,5.2246863 Z M8.86592506,6.17023665 C8.34371429,6.17023665 7.92037471,5.74689707 7.92037471,5.2246863 C7.92037471,4.70247553 8.34371429,4.27913595 8.86592506,4.27913595 L14.177137,4.27913595 C14.6993478,4.27913595 15.1226874,4.70247553 15.1226874,5.2246863 C15.1226874,5.74689707 14.6993478,6.17023665 14.177137,6.17023665 L8.86592506,6.17023665 Z M6.02185422,9.02171616 C6.02185422,9.63607916 5.52380504,10.1341283 4.90944204,10.1341283 C4.29507904,10.1341283 3.79702986,9.63607916 3.79702986,9.02171616 C3.79702986,8.40735316 4.29507904,7.90930398 4.90944204,7.90930398 C5.52380504,7.90930398 6.02185422,8.40735316 6.02185422,9.02171616 Z M8.86592506,9.96726651 C8.34371429,9.96726651 7.92037471,9.54392693 7.92037471,9.02171616 C7.92037471,8.49950539 8.34371429,8.07616581 8.86592506,8.07616581 L14.177137,8.07616581 C14.6993478,8.07616581 15.1226874,8.49950539 15.1226874,9.02171616 C15.1226874,9.54392693 14.6993478,9.96726651 14.177137,9.96726651 L8.86592506,9.96726651 Z M6.02185422,12.818746 C6.02185422,13.433109 5.52380504,13.9311582 4.90944204,13.9311582 C4.29507904,13.9311582 3.79702986,13.433109 3.79702986,12.818746 C3.79702986,12.204383 4.29507904,11.7063338 4.90944204,11.7063338 C5.52380504,11.7063338 6.02185422,12.204383 6.02185422,12.818746 Z M8.86592506,13.7642964 C8.34371429,13.7642964 7.92037471,13.340979 7.92037471,12.818746 C7.92037471,12.2965352 8.34371429,11.8731957 8.86592506,11.8731957 L14.177137,11.8731957 C14.6993478,11.8731957 15.1226874,12.2965352 15.1226874,12.818746 C15.1226874,13.340979 14.6993478,13.7642964 14.177137,13.7642964 L8.86592506,13.7642964 Z" id="Combined-Shape" fill="#757575"></path>
    </g>
</svg>