<?xml version="1.0" encoding="UTF-8"?>
<svg width="50px" height="50px" viewBox="0 0 50 50" version="1.1" xmlns="http://www.w3.org/2000/svg" xmlns:xlink="http://www.w3.org/1999/xlink">
    <!-- Generator: Sketch 52.5 (67469) - http://www.bohemiancoding.com/sketch -->
    <title>Rocket</title>
    <desc>Created with Sketch.</desc>
    <g id="Boost" stroke="none" stroke-width="1" fill="none" fill-rule="evenodd">
        <g id="Publish-story" transform="translate(-528.000000, -498.000000)">
            <g id="Group-22" transform="translate(490.000000, 304.000000)">
                <g id="Group-19" transform="translate(38.000000, 194.000000)">
                    <g id="Rocket">
                        <circle id="Oval" fill="#EEEEEE" cx="25" cy="25" r="25"></circle>
                        <g id="Group-15" transform="translate(25.000000, 25.500000) rotate(-315.000000) translate(-25.000000, -25.500000) translate(13.500000, 8.500000)" fill-rule="nonzero">
                            <path d="M11.5,34 C13.586409,34 15.5,28.1433766 15.5,27 C15.5,25.9066234 13.8086313,25 11.5,25 C9.63581315,25 7.5,25.9066234 7.5,27 C7.5,28.1433766 9.41359095,34 11.5,34 Z" id="Shape" fill="#A6A6A6"></path>
                            <path d="M0,26.1360395 C0,24.8924592 0.5953318,23.0705441 1.32898165,22.0676747 L5.87101835,15.8588965 C6.60499465,14.855581 7.2,15.0507868 7.2,16.2935693 L7.2,25.6593178 C7.2,26.9026965 6.19887085,28.0350634 4.97118305,28.1876269 L0.89732715,28.6938809 C0.40174705,28.7554662 0,28.4026805 0,27.902794 L0,26.1360395 Z M23,26.1216719 C23,24.8860266 22.4077343,23.0747353 21.675216,22.0734128 L17.124784,15.8531585 C16.393126,14.8530119 15.8,15.0396156 15.8,16.2781365 L15.8,25.6747505 C15.8,26.9096059 16.8011291,28.0350634 18.0288169,28.1876269 L22.1026728,28.6938809 C22.5982529,28.7554662 23,28.4026805 23,27.9142254 L23,26.1216719 Z" id="Shape" fill="#4C4C4C"></path>
                            <path d="M4.7521096,8.3889752 C4.99790455,5.6726454 7.07976715,2.2956297 9.4354339,0.9164057 C9.4354339,0.9164057 10.5993663,7.10542736e-14 11.4997339,7.10542736e-14 C12.4001015,7.10542736e-14 13.5640338,0.9164057 13.5640338,0.9164057 C15.9047675,2.3270621 18.0324209,5.6770244 18.2504428,8.39819765 C18.2504428,8.39819765 18.5907698,9.8331364 18.4775827,16.2685549 C18.3643956,22.7039734 17.5437257,27.7413661 17.5437257,27.7413661 C17.4379066,28.4732089 16.7922732,28.8277725 16.1008507,28.5744493 C16.1008507,28.5744493 14.6510205,27.7650004 11.4997339,27.7650004 C8.3484473,27.7650004 6.8986171,28.5744493 6.8986171,28.5744493 C6.20755835,28.846193 5.5585061,28.468825 5.45554075,27.7299196 C5.45554075,27.7299196 4.63385795,22.6349395 4.521885,16.2685549 C4.4099121,9.9021703 4.7521096,8.3889752 4.7521096,8.3889752 Z" id="Shape" fill="#757575"></path>
                            <path d="M11.5,13 C9.56700338,13 8,11.4329966 8,9.5 C8,7.56700338 9.56700338,6 11.5,6 C13.4329966,6 15,7.56700338 15,9.5 C15,11.4329966 13.4329966,13 11.5,13 Z M12.5,18.5004321 L12.5,27.9995679 C12.5,28.5520913 12.0561352,29 11.5,29 C10.9477153,29 10.5,28.5491864 10.5,27.9995679 L10.5,18.5004321 C10.5,17.9479087 10.9438648,17.5 11.5,17.5 C12.0522847,17.5 12.5,17.9508136 12.5,18.5004321 Z" id="Combined-Shape" fill="#4C4C4C"></path>
                        </g>
                    </g>
                </g>
            </g>
        </g>
    </g>
</svg>