<?xml version="1.0" encoding="UTF-8"?>
<svg width="19px" height="18px" viewBox="0 0 19 18" version="1.1" xmlns="http://www.w3.org/2000/svg" xmlns:xlink="http://www.w3.org/1999/xlink">
    <!-- Generator: Sketch 52.5 (67469) - http://www.bohemiancoding.com/sketch -->
    <title>ic_wallet</title>
    <desc>Created with Sketch.</desc>
    <defs>
        <polygon id="path-1" points="0 0.0134800852 18.9932296 0.0134800852 18.9932296 17.2800852 0 17.2800852"></polygon>
    </defs>
    <g id="ic_wallet" stroke="none" stroke-width="1" fill="none" fill-rule="evenodd">
        <g id="Group-6">
            <g id="Group-3" transform="translate(0.000000, 0.006758)">
                <mask id="mask-2" fill="white">
                    <use xlink:href="#path-1"></use>
                </mask>
                <g id="Clip-2"></g>
                <path d="M13.4948643,4.03336613 C12.0614873,4.03336613 10.8995129,5.19534058 10.8995129,6.62869734 L10.8995129,10.6648518 C10.8995129,12.0982085 12.0614873,13.2602032 13.4948643,13.2602032 L17.2665768,13.2602032 L17.2665768,14.6866398 C17.2665768,15.1649178 16.8780784,15.5534162 16.4006503,15.5534162 L2.59343727,15.5534162 C2.11517955,15.5534162 1.72666092,15.1649178 1.72666092,14.6866398 L1.72666092,2.60605942 C1.72666092,2.12863131 2.11517955,1.74013291 2.59343727,1.74013291 L16.4006503,1.74013291 C16.8780784,1.74013291 17.2665768,2.12863131 17.2665768,2.60605942 L17.2665768,4.03336613 L13.4948643,4.03336613 Z M17.2665768,11.5402884 L13.4948643,11.5402884 C13.0121551,11.5402884 12.6194277,11.1475813 12.6194277,10.6648518 L12.6194277,6.62869734 C12.6194277,6.14598807 13.0121551,5.75328094 13.4948643,5.75328094 L17.2665768,5.75328094 L17.2665768,11.5402884 Z M16.4006503,0.0134800852 L2.59343727,0.0134800852 C1.16378339,0.0134800852 -1.21405751e-05,1.1763853 -1.21405751e-05,2.60605942 L-1.21405751e-05,14.6866398 C-1.21405751e-05,16.1162937 1.16378339,17.2800892 2.59343727,17.2800892 L16.4006503,17.2800892 C17.8303446,17.2800892 18.9932296,16.1162937 18.9932296,14.6866398 L18.9932296,13.2602032 L18.9932296,4.03336613 L18.9932296,2.60605942 C18.9932296,1.1763853 17.8303446,0.0134800852 16.4006503,0.0134800852 Z" id="Fill-1" fill="#757575" mask="url(#mask-2)"></path>
            </g>
            <path d="M14.9463793,9.66525751 C15.5051291,9.66525751 15.9580939,9.21229265 15.9580939,8.65354292 C15.9580939,8.09479318 15.5051291,7.64182833 14.9463793,7.64182833 C14.3876296,7.64182833 13.9346647,8.09479318 13.9346647,8.65354292 C13.9346647,9.21229265 14.3876296,9.66525751 14.9463793,9.66525751" id="Fill-4" fill="#757575"></path>
        </g>
    </g>
</svg>