<?xml version="1.0" encoding="iso-8859-1"?>
<!-- Generator: Adobe Illustrator 16.0.0, SVG Export Plug-In . SVG Version: 6.00 Build 0)  -->
<!DOCTYPE svg PUBLIC "-//W3C//DTD SVG 1.1//EN" "http://www.w3.org/Graphics/SVG/1.1/DTD/svg11.dtd">
<svg version="1.1" id="Capa_1" xmlns="http://www.w3.org/2000/svg" xmlns:xlink="http://www.w3.org/1999/xlink" x="0px" y="0px" viewBox="0 0 612 612" style="enable-background:new 0 0 612 612;" xml:space="preserve">
<g>
	<g>
		<g id="group-26svg">
			<path id="path-1_19_" d="M366.502,612H162.501c-50.835,0-89.644-42.267-89.644-92.286V92.286C72.857,42.267,111.666,0,162.501,0
				h281.714c50.912,0,94.928,40.538,94.928,92.286v310.187c0,3.273-3.176,6.46-5.207,9.024L378.984,606.463
				C376.205,609.96,370.959,612,366.502,612z M162.501,29.143c-35.04,0-60.5,28.919-60.5,63.143v427.428
				c0,34.224,25.461,63.144,60.5,63.144h196.948L510,397.411V92.286c0-35.409-31.221-63.143-65.785-63.143H162.501z"/>
			<path id="path-2_19_" d="M364.996,609.911c-1.633,0-1.205-0.271-2.809-0.845c-5.809-2.069-7.615-7.558-7.615-13.727V456.377
				c0-29.317,24.859-58.091,54.41-58.091h104.67c5.625,0,10.744,3.234,13.154,8.315c2.418,5.08,1.689,11.094-1.855,15.455
				L376.293,604.539C373.467,608.008,369.299,609.911,364.996,609.911z M408.982,427.429c-13.475,0-25.268,15.688-25.268,28.948
				v97.998l99.279-126.946H408.982z"/>
			<path id="path-3_19_" d="M301.27,390.572c-3.837,0-7.558-1.506-10.307-4.265c-3.371-3.37-4.876-8.179-4.042-12.871l8.422-47.114
				c0.525-2.934,1.943-5.634,4.042-7.742l115.929-115.94c7.918-7.917,18.459-12.269,29.658-12.269
				c11.201,0,21.73,4.352,29.648,12.269c16.359,16.359,16.359,42.957,0,59.315l-115.92,115.93c-2.109,2.108-4.809,3.526-7.742,4.041
				l-47.134,8.423C302.97,390.495,302.125,390.572,301.27,390.572z M323.225,335.949l-3.936,22.032l22.043-3.935l112.686-112.695
				c4.992-4.993,4.992-13.114,0-18.107c-4.828-4.809-13.25-4.838-18.098,0.01L323.225,335.949z"/>
		</g>
	</g>
</g>
<g>
</g>
<g>
</g>
<g>
</g>
<g>
</g>
<g>
</g>
<g>
</g>
<g>
</g>
<g>
</g>
<g>
</g>
<g>
</g>
<g>
</g>
<g>
</g>
<g>
</g>
<g>
</g>
<g>
</g>
</svg>
