<?xml version="1.0" encoding="utf-8"?>
<!-- Generator: Adobe Illustrator 21.1.0, SVG Export Plug-In . SVG Version: 6.00 Build 0)  -->
<svg version="1.1" id="Layer_1" xmlns="http://www.w3.org/2000/svg" xmlns:xlink="http://www.w3.org/1999/xlink" x="0px" y="0px"
	 viewBox="0 0 80 80" style="enable-background:new 0 0 80 80;" xml:space="preserve">
<style type="text/css">
	.st0{fill:#DEE2E6;}
	.st1{fill:none;}
	.st2{fill:#F7F8F9;}
	.st3{fill:none;stroke:#3366FF;stroke-width:1.6021;stroke-linecap:round;stroke-miterlimit:10;}
	.st4{fill:none;stroke:#FFFFFF;stroke-miterlimit:10;stroke-opacity:0;}
</style>
<g>
	<g>
		<path class="st0" d="M10.1,18.8c0.4,0,0.7-0.1,1-0.5c0.5-0.6,1-1.2,1.7-1.7c0.5-0.4,0.6-1.2,0.2-1.7c-0.4-0.5-1.2-0.6-1.7-0.2
			c-0.9,0.6-1.6,1.5-2.2,2.3c-0.4,0.6-0.2,1.4,0.2,1.7C9.6,18.8,9.9,18.8,10.1,18.8z"/>
		<path class="st1" d="M38.2,18.3c-3.2-0.9-5.5-3.7-5.5-7.1c0-2.6,1.4-4.9,3.4-6.2c-1.6,1.5-2.6,3.6-2.6,5.9
			C33.5,14.1,35.5,16.9,38.2,18.3z"/>
		<path class="st2" d="M47.5,11.2c0,4.1-3.3,7.4-7.4,7.4c-0.6,0-1.2-0.1-1.8-0.2c-2.7-1.4-4.7-4.1-4.7-7.4c0-2.3,1-4.4,2.6-5.9
			c1.1-0.7,2.5-1.1,3.9-1.1C44.1,3.8,47.5,7.1,47.5,11.2z"/>
		<path class="st2" d="M57.7,58.6c0,9.7-7.9,17.6-17.6,17.6s-17.6-7.9-17.6-17.6c0-5.9,3-11.2,7.5-14.4c0.7-0.5,1.5-1,2.2-1.4
			c2.3-1.2,5.1-1.8,7.9-1.8s5.5,0.6,7.9,1.8c0.7,0.4,1.5,0.9,2.2,1.4C54.7,47.2,57.7,52.5,57.7,58.6z"/>
		<path class="st0" d="M67.3,31.5c3.3-1.6,5.7-5.1,5.7-9c0-5.5-4.4-10-10-10s-10,4.4-10,10c0,3.9,2.3,7.3,5.5,8.9
			c-1.2,0.4-2.3,0.9-3.4,1.5C54.4,26.7,49.8,21.6,44,20c3.4-1.5,5.8-4.9,5.8-9c0-5.4-4.4-9.9-9.9-9.9s-9.9,4.4-9.9,9.9
			c0,3.9,2.3,7.4,5.8,9c-5.9,1.6-10.3,6.7-11.1,12.8c-1.1-0.6-2.3-1.1-3.6-1.5c3.3-1.6,5.7-4.9,5.7-8.9c0-5.4-4.4-9.9-9.9-9.9
			c-0.6,0-1.2,0.5-1.2,1.2c0,0.6,0.6,1.2,1.2,1.2c4.1,0,7.4,3.3,7.4,7.4s-3.3,7.4-7.4,7.4c-3.2,0-5.9-2-7-4.9
			c-0.2-0.7-0.4-1.6-0.4-2.3c0-0.5,0.1-1,0.1-1.5c0.1-0.6-0.2-1.4-1-1.5c-0.6-0.1-1.4,0.2-1.5,1c-0.1,0.6-0.2,1.4-0.2,2.1
			c0,1.1,0.2,2.1,0.5,3.2c0.9,2.6,2.8,4.7,5.3,5.8C6.4,33.6,1.8,39.4,1.8,46.4c0,0.7,0.6,1.2,1.2,1.2s1.2-0.5,1.2-1.2
			c0-7,5.8-12.8,12.8-12.8c5.4,0,10.1,3.4,11.9,8.4c-5.5,3.6-9.4,9.9-9.4,17c0,11.1,9,20.1,20.1,20.1s20.1-9,20.1-20.1
			c0-7.1-3.7-13.4-9.4-17c1.8-4.8,6.5-8.4,11.9-8.4c7,0,12.8,5.8,12.8,12.8c0,0.7,0.5,1.2,1.2,1.2c0.6,0,1.2-0.5,1.2-1.2
			C78.1,39.2,73.6,33.3,67.3,31.5z M32.7,11.2c0-2.6,1.4-4.9,3.4-6.2c1.1-0.7,2.5-1.1,3.9-1.1c4.1,0,7.4,3.3,7.4,7.4
			s-3.3,7.4-7.4,7.4c-0.6,0-1.2-0.1-1.8-0.2C35.1,17.4,32.7,14.6,32.7,11.2z M57.7,58.6c0,9.7-7.9,17.6-17.6,17.6
			s-17.6-7.9-17.6-17.6c0-5.9,3-11.2,7.5-14.4c0.7-0.5,1.5-1,2.2-1.4c2.3-1.2,5.1-1.8,7.9-1.8c2.8,0,5.5,0.6,7.9,1.8
			c0.7,0.4,1.5,0.9,2.2,1.4C54.7,47.2,57.7,52.5,57.7,58.6z M48.7,40.3c-2.6-1.2-5.5-2-8.6-2s-5.9,0.7-8.6,2
			c-0.9-2.2-2.3-4.3-4.2-5.9c0.1-6.9,5.8-12.6,12.8-12.6s12.7,5.5,12.8,12.6C51,36,49.6,38.1,48.7,40.3z M55.8,22.5
			c0-3.9,3.2-7.1,7.1-7.1s7.1,3.2,7.1,7.1s-3.2,7.1-7.1,7.1S55.8,26.4,55.8,22.5z"/>
		<g>
			<line class="st3" x1="49.3" y1="58.6" x2="52.1" y2="58.6"/>
			<polyline class="st3" points="28,58.6 42,58.6 42.3,58.6 			"/>
		</g>
	</g>
	<rect class="st4" width="80" height="80"/>
</g>
</svg>
