<?xml version="1.0" encoding="utf-8"?>
<!-- Generator: Adobe Illustrator 21.1.0, SVG Export Plug-In . SVG Version: 6.00 Build 0)  -->
<svg version="1.1" id="Layer_1" xmlns="http://www.w3.org/2000/svg" xmlns:xlink="http://www.w3.org/1999/xlink" x="0px" y="0px"
	 viewBox="0 0 80 80" style="enable-background:new 0 0 80 80;" xml:space="preserve">
<style type="text/css">
	.st0{fill:none;}
	.st1{fill:#F7F8F9;}
	.st2{fill:#DEE2E6;}
	.st3{fill:#3366FF;}
	.st4{fill:none;stroke:#FFFFFF;stroke-miterlimit:10;stroke-opacity:0;}
</style>
<g>
	<g>
		<path class="st0" d="M38.3,18.8c-3.1-0.8-5.4-3.6-5.4-7c0-2.5,1.3-4.8,3.4-6c-1.6,1.4-2.5,3.5-2.5,5.8
			C33.7,14.7,35.6,17.4,38.3,18.8z"/>
		<path class="st0" d="M69.5,22.9c0,3.9-3.1,7-7,7s-7-3.1-7-7s3.1-7,7-7S69.5,19,69.5,22.9z"/>
		<path class="st1" d="M47.3,11.8c0,4-3.3,7.2-7.2,7.2c-0.6,0-1.2-0.1-1.8-0.2c-2.7-1.3-4.6-4-4.6-7.2c0-2.3,1-4.3,2.5-5.8
			c1.1-0.7,2.4-1.1,3.9-1.1C44,4.6,47.3,7.8,47.3,11.8z"/>
		<path class="st1" d="M49.9,44c-0.7-0.5-1.4-1-2.2-1.3c-2.3-1.2-4.9-1.8-7.7-1.8c-2.8,0-5.4,0.6-7.7,1.8c-0.7,0.4-1.4,0.8-2.2,1.3
			c-4.5,3.1-7.3,8.3-7.3,14.1c0,9.5,7.7,17.2,17.2,17.2s17.2-7.6,17.2-17.1C57.3,52.3,54.4,47.1,49.9,44z M49.8,68.1
			c-0.1,0.2-0.4,0.2-0.6,0.2c-0.2,0-0.5-0.1-0.6-0.2l-2-2c-0.4-0.4-0.4-1,0-1.3c0.4-0.4,1-0.4,1.3,0l2,2
			C50.2,67.1,50.2,67.7,49.8,68.1z M50.1,49.5l-8.7,8.7l3.9,3.9c0.4,0.4,0.4,1,0,1.3c-0.1,0.1-0.4,0.2-0.6,0.2
			c-0.2,0-0.5-0.1-0.6-0.2l-4-3.9l-8.6,8.6c-0.1,0.2-0.4,0.2-0.6,0.2c-0.2,0-0.5-0.1-0.6-0.2c-0.4-0.4-0.4-1,0-1.3l8.6-8.6l-8.7-8.7
			c-0.4-0.4-0.4-1,0-1.3c0.4-0.4,1-0.4,1.3,0l8.7,8.7l8.7-8.7c0.4-0.4,1-0.4,1.3,0C50.4,48.5,50.4,49.1,50.1,49.5z"/>
		<path class="st2" d="M66.7,31.7c3.3-1.6,5.5-4.9,5.5-8.8c0-5.4-4.3-9.8-9.8-9.8s-9.8,4.3-9.8,9.8c0,3.9,2.3,7.1,5.4,8.7
			c-1.2,0.4-2.3,0.8-3.4,1.4c-0.7-6-5.2-11-10.8-12.5c3.4-1.4,5.7-4.8,5.7-8.8c0-5.3-4.3-9.6-9.6-9.6s-9.6,4.3-9.6,9.6
			c0,3.9,2.3,7.2,5.7,8.8C30.2,22,25.8,27,25.1,33c-1.1-0.6-2.3-1.1-3.5-1.4c3.3-1.6,5.5-4.8,5.5-8.7c0-5.3-4.3-9.6-9.6-9.6
			c-0.6,0-1.2,0.5-1.2,1.2c0,0.6,0.6,1.2,1.2,1.2c4,0,7.2,3.3,7.2,7.2s-3.3,7.2-7.2,7.2c-3.1,0-5.8-1.9-6.9-4.8
			c-0.2-0.7-0.4-1.6-0.4-2.3c0-0.5,0.1-1,0.1-1.4c0.1-0.6-0.2-1.3-1-1.4c-0.6-0.1-1.3,0.2-1.4,1c-0.1,0.6-0.2,1.3-0.2,2
			c0,1.1,0.2,2,0.5,3.1c0.8,2.5,2.8,4.6,5.2,5.7C7.2,33.7,2.6,39.4,2.6,46.2c0,0.7,0.6,1.2,1.2,1.2S5,47,5,46.2
			c0-6.9,5.7-12.5,12.5-12.5c5.3,0,9.9,3.4,11.7,8.2c-5.4,3.5-9.2,9.6-9.2,16.6c0,10.8,8.8,19.6,19.6,19.6s19.6-8.8,19.6-19.6
			c0-7-3.6-13.1-9.2-16.6c1.8-4.7,6.4-8.2,11.7-8.2c6.9,0,12.5,5.7,12.5,12.5c0,0.7,0.5,1.2,1.2,1.2c0.6,0,1.2-0.5,1.2-1.2
			C77.3,39.3,72.7,33.5,66.7,31.7z M32.8,11.8c0-2.5,1.3-4.8,3.4-6c1.1-0.7,2.4-1.1,3.9-1.1c4,0,7.2,3.3,7.2,7.2s-3.3,7.2-7.2,7.2
			c-0.6,0-1.2-0.1-1.8-0.2C35.1,17.9,32.8,15.2,32.8,11.8z M57.3,58.2c0,9.5-7.7,17.2-17.2,17.2s-17.2-7.7-17.2-17.2
			c0-5.8,2.9-11,7.3-14.1c0.7-0.5,1.4-1,2.2-1.3c2.3-1.2,4.9-1.8,7.7-1.8c2.8,0,5.4,0.6,7.7,1.8c0.7,0.4,1.4,0.8,2.2,1.3
			C54.4,47.1,57.3,52.3,57.3,58.2z M48.5,40.3c-2.5-1.2-5.4-1.9-8.4-1.9s-5.8,0.7-8.4,1.9c-0.8-2.2-2.3-4.2-4.1-5.8
			c0.1-6.7,5.7-12.3,12.5-12.3s12.4,5.4,12.5,12.3C50.8,36.2,49.3,38.2,48.5,40.3z M55.5,22.9c0-3.9,3.1-7,7-7s7,3.1,7,7s-3.1,7-7,7
			C58.6,29.9,55.5,26.7,55.5,22.9z"/>
		<path class="st3" d="M49.8,66.7l-2-2c-0.4-0.4-1-0.4-1.3,0s-0.4,1,0,1.3l2,2c0.2,0.2,0.4,0.2,0.6,0.2s0.5-0.1,0.6-0.2
			C50.2,67.7,50.2,67.1,49.8,66.7z"/>
		<path class="st3" d="M50.1,49.5l-8.7,8.7l3.9,3.9c0.4,0.4,0.4,1,0,1.3c-0.1,0.1-0.4,0.2-0.6,0.2c-0.2,0-0.5-0.1-0.6-0.2l-4-3.9
			l-8.6,8.6c-0.1,0.2-0.4,0.2-0.6,0.2c-0.2,0-0.5-0.1-0.6-0.2c-0.4-0.4-0.4-1,0-1.3l8.6-8.6l-8.7-8.7c-0.4-0.4-0.4-1,0-1.3
			c0.4-0.4,1-0.4,1.3,0l8.7,8.7l8.7-8.7c0.4-0.4,1-0.4,1.3,0C50.4,48.5,50.4,49.1,50.1,49.5z"/>
		<path class="st2" d="M10.8,19.3c0.4,0,0.7-0.1,1-0.5c0.5-0.6,1-1.2,1.7-1.7c0.5-0.4,0.6-1.2,0.2-1.7c-0.4-0.5-1.2-0.6-1.7-0.2
			c-0.8,0.6-1.6,1.4-2.2,2.3c-0.4,0.6-0.2,1.3,0.2,1.7C10.3,19.3,10.5,19.3,10.8,19.3z"/>
	</g>
	<rect class="st4" width="80" height="80"/>
</g>
</svg>
