<?xml version="1.0" encoding="utf-8"?>
<!-- Generator: Adobe Illustrator 21.1.0, SVG Export Plug-In . SVG Version: 6.00 Build 0)  -->
<svg version="1.1" id="Layer_1" xmlns="http://www.w3.org/2000/svg" xmlns:xlink="http://www.w3.org/1999/xlink" x="0px" y="0px"
	 viewBox="0 0 80 80" style="enable-background:new 0 0 80 80;" xml:space="preserve">
<style type="text/css">
	.st0{fill:none;stroke:#DEE2E6;stroke-width:2.302;stroke-linecap:round;stroke-miterlimit:10;}
	.st1{fill:#F7F8F9;}
	.st2{fill:#DEE2E6;}
	.st3{fill:#3366FF;}
	.st4{fill:none;}
	.st5{fill:none;stroke:#FFFFFF;stroke-miterlimit:10;stroke-opacity:0;}
</style>
<g>
	<g>
		<path class="st0" d="M40.7,3.9c2.3,0.3,4.5,0.9,6.6,1.7"/>
		<g>
			<g>
				<path class="st0" d="M61.4,16.9c3.5,5,5.6,11.1,5.6,17.7c0,17.2-13.9,31.2-31.2,31.2S4.7,51.9,4.7,34.6S18.6,3.4,35.9,3.4"/>
				<polyline class="st0" points="36.4,18.3 36.4,37.2 36.4,37.2 55.3,37.2 				"/>
			</g>
			<g>
				<path class="st1" d="M60.7,46.5c-8.6,0-15.4,7-15.4,15.4c0,8.6,7,15.4,15.4,15.4c8.6,0,15.4-7,15.4-15.4
					C76.1,53.3,69.3,46.5,60.7,46.5z M66,67.2c0.3-0.3,0.9-0.3,1.3,0l1.7,1.7c0.3,0.3,0.3,0.9,0,1.3c-0.1,0.2-0.3,0.2-0.6,0.2
					s-0.5-0.1-0.6-0.2l-1.7-1.7C65.7,68.1,65.7,67.6,66,67.2z M69.2,54.7L62,61.9l3.1,3.1c0.3,0.3,0.3,0.9,0,1.3
					c-0.2,0.2-0.5,0.2-0.7,0.2c-0.2,0-0.5-0.1-0.6-0.2l-3.1-3.1l-7.1,7.1c-0.2,0.2-0.3,0.2-0.6,0.2c-0.2,0-0.5-0.1-0.6-0.2
					c-0.3-0.3-0.3-0.9,0-1.3l7.1-7.1l-7.2-7.2c-0.3-0.3-0.3-0.9,0-1.3c0.3-0.3,0.9-0.3,1.3,0l7.1,7.3l7.2-7.2c0.3-0.3,0.9-0.3,1.3,0
					C69.5,53.9,69.5,54.3,69.2,54.7z"/>
				<path class="st2" d="M60.7,45.3c-9.2,0-16.6,7.4-16.6,16.6s7.4,16.6,16.6,16.6S77.3,71,77.3,61.9C77.3,52.7,69.9,45.3,60.7,45.3
					z M60.7,76.1c-7.9,0-14.3-6.4-14.3-14.3s6.4-14.3,14.3-14.3C68.6,47.6,75,54,75,61.9S68.6,76.1,60.7,76.1z"/>
			</g>
			<g>
				<g>
					<path class="st3" d="M69.2,54.7L62,61.9l3.1,3.1c0.3,0.3,0.3,0.9,0,1.3c-0.2,0.2-0.5,0.2-0.7,0.2c-0.2,0-0.5-0.1-0.6-0.2
						l-3.1-3.1l-7.1,7.1c-0.2,0.2-0.3,0.2-0.6,0.2c-0.2,0-0.5-0.1-0.6-0.2c-0.3-0.3-0.3-0.9,0-1.3l7.1-7.1l-7.2-7.2
						c-0.3-0.3-0.3-0.9,0-1.3c0.3-0.3,0.9-0.3,1.3,0l7.1,7.3l7.2-7.2c0.3-0.3,0.9-0.3,1.3,0C69.5,53.9,69.5,54.3,69.2,54.7z"/>
					<line class="st4" x1="60.1" y1="61.3" x2="52.9" y2="54.1"/>
					<line class="st4" x1="64.4" y1="65.7" x2="61.3" y2="62.6"/>
				</g>
				<g>
					<line class="st4" x1="68.4" y1="69.6" x2="66.6" y2="67.9"/>
					<path class="st3" d="M68.9,70.2c-0.1,0.2-0.3,0.2-0.6,0.2c-0.2,0-0.5-0.1-0.6-0.2L66,68.5c-0.3-0.3-0.3-0.9,0-1.3
						s0.9-0.3,1.3,0l1.7,1.7C69.3,69.3,69.3,69.9,68.9,70.2z"/>
				</g>
				<g>
					<line class="st4" x1="60.1" y1="62.6" x2="53.1" y2="69.6"/>
					<line class="st4" x1="68.5" y1="54.1" x2="61.3" y2="61.3"/>
				</g>
			</g>
		</g>
	</g>
	<rect class="st5" width="80" height="80"/>
</g>
</svg>
