<?xml version="1.0" encoding="utf-8"?>
<!-- Generator: Adobe Illustrator 21.1.0, SVG Export Plug-In . SVG Version: 6.00 Build 0)  -->
<svg version="1.1" id="Layer_1" xmlns="http://www.w3.org/2000/svg" xmlns:xlink="http://www.w3.org/1999/xlink" x="0px" y="0px"
	 viewBox="0 0 80 80" style="enable-background:new 0 0 80 80;" xml:space="preserve">
<style type="text/css">
	.st0{fill:#F7F8F9;}
	.st1{fill:#DEE2E6;}
	.st2{fill:#3366FF;}
	.st3{fill:none;stroke:#FFFFFF;stroke-miterlimit:10;stroke-opacity:0;}
</style>
<g>
	<g>
		<path class="st0" d="M70.3,57.9H18.1c-1.5,0-2.6-1.2-2.6-2.6V18.5c0-1.5,1.2-2.6,2.6-2.6h52.1c1.5,0,2.6,1.2,2.6,2.6v36.8
			C72.9,56.8,71.7,57.9,70.3,57.9z"/>
		<g>
			<path class="st1" d="M73.3,16.3v39c0,2.1-1.7,3.8-3.8,3.8H15.6c-2.1,0-3.8-1.7-3.8-3.8v-39c0-2.1,1.7-3.8,3.8-3.8h7.8
				c0.7,0,1.2,0.5,1.2,1.2c0,0.7-0.5,1.2-1.2,1.2h-7.8c-0.8,0-1.5,0.7-1.5,1.5v39c0,0.8,0.7,1.5,1.5,1.5h53.8c0.8,0,1.5-0.7,1.5-1.5
				v-39c0-0.8-0.7-1.5-1.5-1.5H29.9c-0.8,0-1.3-0.5-1.3-1.2c0-0.7,0.7-1.2,1.3-1.2h39.6C71.6,12.4,73.3,14.2,73.3,16.3z"/>
			<path class="st1" d="M62.5,12.4h-2.5V4.4c0-0.5-0.4-0.7-0.5-0.8c-0.1,0-0.5-0.1-0.9,0.1l-9.4,8.7h-3.7L56.8,1.9
				c1.1-0.9,2.4-1.2,3.7-0.7s2.1,1.7,2.1,3.2L62.5,12.4z"/>
			<path class="st1" d="M43.5,66.3c0,0.7-0.7,1.2-1.3,1.2H11.5c-2.1,0-3.8-1.7-3.8-3.8v-39c0-2.1,1.7-3.8,3.8-3.8h0.3v2.4h-0.3
				c-0.8,0-1.5,0.7-1.5,1.5v39c0,0.8,0.7,1.5,1.5,1.5h30.6C42.9,65.1,43.5,65.6,43.5,66.3z"/>
			<path class="st1" d="M69.2,59.1v4.5c0,2.1-1.7,3.8-3.8,3.8h-7.8c-0.7,0-1.2-0.5-1.2-1.2s0.5-1.2,1.2-1.2h7.8
				c0.8,0,1.5-0.7,1.5-1.5v-4.5H69.2z"/>
			<path class="st1" d="M52.5,65.1h-6.6c-0.7,0-1.2,0.5-1.2,1.2s0.5,1.2,1.2,1.2h6.6c0.7,0,1.2-0.5,1.2-1.2S53.2,65.1,52.5,65.1z"/>
			<path class="st1" d="M35.6,67.5L24.2,78.1c-0.7,0.7-1.5,0.9-2.4,0.9c-0.4,0-0.9-0.1-1.3-0.3c-1.3-0.5-2-1.7-2-3.2v-8.1h2.5v8.1
				c0,0.5,0.4,0.7,0.5,0.8c0.1,0,0.5,0.1,0.9-0.1l9.4-8.7C31.9,67.5,35.6,67.5,35.6,67.5z"/>
		</g>
		<g>
			<path class="st2" d="M41.4,23.7c-4.2,0-7.7,3.4-7.7,7.7c0,0.7,0.5,1.2,1.2,1.2c0.5,0,1.1-0.4,1.2-0.8c0.1-3.2,2.4-5.7,5.3-5.7
				c2.9,0,5.3,2.4,5.3,5.3c0,1.3-0.4,2.5-1.3,3.4l-3.7,3.8c-1.2,1.3-1.9,3.3-1.9,5.3c0.4,0.9,2,0.9,2.2,0c0.1-1.6,0.7-3,1.6-4
				l3.4-3.4c1.2-1.3,1.9-3.2,1.9-4.9C49.1,27.1,45.7,23.7,41.4,23.7z"/>
			<path class="st2" d="M40.9,46.3c-0.4,0-0.7,0.1-0.9,0.4c-0.1,0.3-0.3,0.5-0.3,0.9c0,0.4,0.1,0.7,0.4,0.9c0.5,0.5,1.5,0.5,1.9,0
				l0.1-0.1c0.3-0.3,0.4-0.5,0.4-0.9c0-0.4-0.1-0.7-0.4-0.9C41.7,46.4,41.3,46.3,40.9,46.3z"/>
		</g>
	</g>
	<rect class="st3" width="80" height="80"/>
</g>
</svg>
