<?xml version="1.0" encoding="utf-8"?>
<!-- Generator: Adobe Illustrator 21.1.0, SVG Export Plug-In . SVG Version: 6.00 Build 0)  -->
<svg version="1.1" id="Layer_1" xmlns="http://www.w3.org/2000/svg" xmlns:xlink="http://www.w3.org/1999/xlink" x="0px" y="0px"
	 viewBox="0 0 97.3 80" style="enable-background:new 0 0 97.3 80;" xml:space="preserve">
<style type="text/css">
	.st0{fill:#3366FF;}
	.st1{fill:#DEE2E6;}
	.st2{fill:#F7F8F9;}
	.st3{fill:none;}
	.st4{fill:none;stroke:#FFFFFF;stroke-miterlimit:10;stroke-opacity:0;}
</style>
<g>
	<path class="st0" d="M53.4,12.9H33.7c-0.5,0-0.9-0.3-0.9-0.9c0-0.5,0.3-0.9,0.9-0.9h19.8c0.5,0,0.9,0.3,0.9,0.9
		C54.4,12.6,53.9,12.9,53.4,12.9z"/>
</g>
<g>
	<g>
		<path class="st1" d="M51.4,55.4H40.2c-0.7,0-1.2-0.5-1.2-1.2c0-0.7,0.5-1.2,1.2-1.2h11.2c0.7,0,1.2,0.5,1.2,1.2
			C52.5,55,52,55.4,51.4,55.4z"/>
	</g>
	<g>
		<path class="st1" d="M37.2,55.4h-4.3c-0.7,0-1.2-0.5-1.2-1.2c0-0.7,0.5-1.2,1.2-1.2h4.3c0.7,0,1.2,0.5,1.2,1.2
			C38.3,55,37.9,55.4,37.2,55.4z"/>
	</g>
	<g>
		<path class="st1" d="M49.1,48.1H33c-0.7,0-1.2-0.5-1.2-1.2c0-0.7,0.5-1.2,1.2-1.2h16.2c0.7,0,1.2,0.5,1.2,1.2
			C50.3,47.7,49.8,48.1,49.1,48.1z"/>
	</g>
	<g>
		<path class="st1" d="M56.8,40.8H33.2c-0.7,0-1.2-0.5-1.2-1.2c0-0.7,0.5-1.2,1.2-1.2h23.6c0.7,0,1.2,0.5,1.2,1.2
			C58,40.3,57.5,40.8,56.8,40.8z"/>
	</g>
	<g>
		<path class="st1" d="M45.2,33.4H33.5c-0.7,0-1.2-0.5-1.2-1.2c0-0.7,0.5-1.2,1.2-1.2h11.7c0.7,0,1.2,0.5,1.2,1.2
			C46.4,32.9,45.9,33.4,45.2,33.4z"/>
	</g>
	<g>
		<path class="st0" d="M41.2,18.1h-7.6c-0.5,0-0.9-0.3-0.9-0.9s0.3-0.9,0.9-0.9h7.6c0.5,0,0.9,0.3,0.9,0.9S41.7,18.1,41.2,18.1z"/>
	</g>
	<g>
		<path class="st1" d="M73.4,17.8h-1.5L61.3,6.2l-0.6-0.5v4c0,0.6-0.6,1.2-1.2,1.2s-1.2-0.6-1.2-1.2V2.8c0-0.7,0.6-1.2,1.2-1.2
			s1.2,0.5,1.2,1.2V4l0.5,0.5L73.4,17.8z"/>
	</g>
	<g>
		<path class="st2" d="M71.8,17.8H63c-0.7,0-1.4-0.3-1.7-0.9V6.2L71.8,17.8z"/>
		<path class="st2" d="M73.3,21h-9.1c-0.9,0-1.9-0.5-2.3-1.2c0.3,0.1,0.7,0.1,1,0.1h10.3L73.3,21z"/>
	</g>
	<path class="st1" d="M57.3,68.5c0,0.6-0.6,1.2-1.2,1.2H26.7c-2.2,0-4.1-1.7-4.1-4.1V25.1c0-0.7,0.6-1.2,1.2-1.2
		c0.7,0,1.2,0.5,1.2,1.2v40.4c0,0.9,0.8,1.7,1.7,1.7h29.4C56.7,67.3,57.3,67.9,57.3,68.5z"/>
	<g>
		<path class="st1" d="M64.8,48.1h-11c-0.7,0-1.2-0.5-1.2-1.2c0-0.7,0.5-1.2,1.2-1.2h11c0.7,0,1.2,0.5,1.2,1.2
			C66,47.7,65.5,48.1,64.8,48.1z"/>
	</g>
	<g>
		<path class="st1" d="M65.4,40.8h-3.8c-0.7,0-1.2-0.5-1.2-1.2c0-0.7,0.5-1.2,1.2-1.2h3.8c0.7,0,1.2,0.5,1.2,1.2
			C66.6,40.3,66,40.8,65.4,40.8z"/>
	</g>
	<g>
		<path class="st1" d="M65.3,33.4H50.1c-0.7,0-1.2-0.5-1.2-1.2c0-0.7,0.5-1.2,1.2-1.2h15.2c0.7,0,1.2,0.5,1.2,1.2
			C66.5,32.9,66,33.4,65.3,33.4z"/>
	</g>
	<g>
		<path class="st1" d="M75.9,42.3c0,0.7-0.5,1.2-1.2,1.2l0,0c-0.6,0-1.2-0.5-1.2-1.2L73.3,21v-1H63c-0.3,0-0.7,0-1-0.1
			c-2-0.5-3.4-2.2-3.5-4.3v-2.9c0-0.7,0.6-1.2,1.2-1.2s1.2,0.5,1.2,1.2v2.9c0,0.5,0.1,0.9,0.5,1.3c0.3,0.6,1,0.9,1.7,0.9h10.3
			L61.2,4.5L60.8,4V2.8c0-0.7-0.6-1.2-1.2-1.2s-1.2,0.5-1.2,1.2V4H26.7C25.8,4,25,4.8,25,5.7v8.5c0,0.7-0.5,1.2-1.2,1.2
			c-0.6,0-1.2-0.5-1.2-1.2V5.7c0-2.2,1.9-4.1,4.1-4.1h32.9c0.3,0,0.6,0.1,0.8,0.3l14.8,16.2l0,0l0.1,0.1c0,0.1,0.1,0.1,0.1,0.2
			c0,0.1,0.1,0.2,0.1,0.3l0,0L75.9,42.3z"/>
	</g>
	<g>
		<g>
			<path class="st2" d="M75.3,46.5c-8.6,0-15.5,7-15.5,15.5c0,8.6,7,15.5,15.5,15.5c8.6,0,15.5-7,15.5-15.5S83.8,46.5,75.3,46.5z
				 M80.6,67.4c0.3-0.3,0.9-0.3,1.3,0l1.7,1.7c0.3,0.3,0.3,0.9,0,1.3c-0.1,0.2-0.3,0.2-0.6,0.2c-0.2,0-0.5-0.1-0.6-0.2l-1.7-1.7
				C80.3,68.3,80.3,67.8,80.6,67.4z M83.8,54.9l-7.3,7.2l3.1,3.1c0.3,0.3,0.3,0.9,0,1.3c-0.1,0.1-0.3,0.2-0.6,0.2
				c-0.2,0-0.5-0.1-0.6-0.2l-3.1-3.1l-7.1,7.1c-0.2,0.2-0.3,0.2-0.6,0.2s-0.5-0.1-0.6-0.2c-0.3-0.3-0.3-0.9,0-1.3l7.1-7.1l-7.2-7.2
				c-0.3-0.3-0.3-0.9,0-1.3s0.9-0.3,1.3,0l7.2,7.2l7.2-7.2c0.3-0.3,0.9-0.3,1.3,0C84.1,53.9,84.1,54.5,83.8,54.9z"/>
			<path class="st1" d="M75.3,45.3c-9.2,0-16.6,7.4-16.6,16.6s7.4,16.6,16.6,16.6s16.6-7.4,16.6-16.6S84.5,45.3,75.3,45.3z
				 M75.3,76.4C67.4,76.4,61,70,61,62.1s6.4-14.3,14.3-14.3s14.3,6.4,14.3,14.3S83.2,76.4,75.3,76.4z"/>
		</g>
		<g>
			<g>
				<path class="st0" d="M83.8,54.9l-7.3,7.2l3.1,3.1c0.3,0.3,0.3,0.9,0,1.3c-0.1,0.1-0.3,0.2-0.6,0.2c-0.2,0-0.5-0.1-0.6-0.2
					l-3.1-3.1l-7.1,7.1c-0.2,0.2-0.3,0.2-0.6,0.2s-0.5-0.1-0.6-0.2c-0.3-0.3-0.3-0.9,0-1.3l7.1-7.1l-7.2-7.2c-0.3-0.3-0.3-0.9,0-1.3
					s0.9-0.3,1.3,0l7.2,7.2l7.2-7.2c0.3-0.3,0.9-0.3,1.3,0C84.1,53.9,84.1,54.5,83.8,54.9z"/>
				<line class="st3" x1="74.7" y1="61.5" x2="67.4" y2="54.3"/>
				<line class="st3" x1="79" y1="65.8" x2="75.9" y2="62.6"/>
			</g>
			<g>
				<line class="st3" x1="83" y1="69.7" x2="81.2" y2="68"/>
				<path class="st0" d="M83.5,70.4c-0.1,0.2-0.3,0.2-0.6,0.2s-0.5-0.1-0.6-0.2l-1.7-1.7c-0.3-0.3-0.3-0.9,0-1.3s0.9-0.3,1.3,0
					l1.7,1.7C83.9,69.5,83.9,70.1,83.5,70.4z"/>
			</g>
			<g>
				<line class="st3" x1="74.7" y1="62.8" x2="67.6" y2="69.7"/>
				<line class="st3" x1="83.1" y1="54.3" x2="75.9" y2="61.5"/>
			</g>
		</g>
	</g>
</g>
<rect x="17.3" class="st4" width="80" height="80"/>
</svg>
