<?xml version="1.0" encoding="UTF-8"?>
<svg width="23px" height="23px" viewBox="0 0 23 23" version="1.1" xmlns="http://www.w3.org/2000/svg" xmlns:xlink="http://www.w3.org/1999/xlink">
    <!-- Generator: Sketch 46.2 (44496) - http://www.bohemiancoding.com/sketch -->
    <title>next</title>
    <desc>Created with Sketch.</desc>
    <defs></defs>
    <g id="Page-1" stroke="none" stroke-width="1" fill="none" fill-rule="evenodd">
        <g id="Desktop-HD" transform="translate(-601.000000, -253.000000)" fill-rule="nonzero">
            <g id="next" transform="translate(612.500000, 264.500000) scale(-1, -1) translate(-612.500000, -264.500000) translate(601.000000, 253.000000)">
                <path d="M11.5,23 C17.8419118,23 23,17.8419118 23,11.5 C23,5.15808824 17.8419118,0 11.5,0 C5.15808824,0 0,5.15808824 0,11.5 C0,17.8419118 5.15808824,23 11.5,23 Z M11.5,0.930147059 C17.3298611,0.930147059 22.0698529,5.67013889 22.0698529,11.5 C22.0698529,17.3298611 17.3298611,22.0698529 11.5,22.0698529 C5.67013889,22.0698529 0.930147059,17.3298611 0.930147059,11.5 C0.930147059,5.67013889 5.67013889,0.930147059 11.5,0.930147059 Z" id="Shape" fill="#2C2F33"></path>
                <path d="M10.1243028,15.8622532 C10.2050465,15.9525011 10.3155378,16 10.4217795,16 C10.5280212,16 10.6385126,15.9525011 10.7192563,15.8622532 L13.8767596,12.3330859 C13.9575033,12.2428381 14,12.1240908 14,12.0005937 C14,11.8770966 13.9575033,11.7583494 13.8767596,11.6681015 L10.7192563,8.13893424 C10.5535193,7.95368859 10.2900398,7.95368859 10.1243028,8.13893424 C9.95856574,8.3241799 9.95856574,8.618673 10.1243028,8.80391866 L12.9843293,12.0005937 L10.1243028,15.1972688 C9.96281541,15.3825145 9.96281541,15.6817575 10.1243028,15.8622532 Z" id="Shape" fill="#000000"></path>
            </g>
        </g>
    </g>
</svg>