<?xml version="1.0" encoding="UTF-8"?>
<svg viewBox="0 0 40 40" version="1.1" xmlns="http://www.w3.org/2000/svg" xmlns:xlink="http://www.w3.org/1999/xlink">
    <!-- Generator: Sketch 52.5 (67469) - http://www.bohemiancoding.com/sketch -->
    <title>ic_testnet_publiq</title>
    <desc>Created with Sketch.</desc>
    <g id="ic_testnet_publiq" stroke="none" stroke-width="1" fill="none" fill-rule="evenodd">
        <path d="M35.5553333,40.0001111 L4.44422222,40.0001111 C1.98977778,40.0001111 -0.000222222222,38.0101111 -0.000222222222,35.5556667 L-0.000222222222,4.44455556 C-0.000222222222,1.99011111 1.98977778,0.000111111111 4.44422222,0.000111111111 L35.5553333,0.000111111111 C38.0097778,0.000111111111 39.9997778,1.99011111 39.9997778,4.44455556 L39.9997778,35.5556667 C39.9997778,38.0101111 38.0097778,40.0001111 35.5553333,40.0001111" id="Fill-1" fill="#3366FF"></path>
        <path d="M29.441,22.0943333 L28.2887778,20.941 C27.571,22.0021111 26.6554444,22.9176667 25.5954444,23.6343333 L26.7487778,24.7876667 C27.4921111,25.5321111 28.6976667,25.5321111 29.441,24.7876667 C30.1854444,24.0443333 30.1854444,22.8376667 29.441,22.0943333" id="Fill-4" fill="#FFFFFF"></path>
        <path d="M19.9997778,5.34577778 C17.9264444,5.34577778 16.0008889,5.97688889 14.4042222,7.05688889 L17.1842222,9.83688889 C18.0297778,9.40355556 18.9853333,9.15577778 19.9997778,9.15577778 C23.4197778,9.15577778 26.1908889,11.9268889 26.1908889,15.3457778 C26.1908889,16.3613333 25.942,17.3157778 25.5086667,18.1613333 L28.2875556,20.9413333 C27.5708889,22.0013333 26.6553333,22.9168889 25.5942222,23.6346667 L22.8142222,20.8546667 C21.9697778,21.288 21.0142222,21.5368889 19.9997778,21.5368889 C16.5808889,21.5368889 13.8097778,18.7646667 13.8097778,15.3457778 C13.8097778,14.3313333 14.0575556,13.3768889 14.4908889,12.5313333 L11.7108889,9.75022222 C10.6308889,11.3468889 9.99977778,13.2724444 9.99977778,15.3457778 C9.99977778,20.8691111 14.4775556,25.3457778 19.9997778,25.3457778 C25.5231111,25.3457778 29.9997778,20.8691111 29.9997778,15.3457778 C29.9997778,9.82244444 25.5231111,5.34577778 19.9997778,5.34577778" id="Fill-6" fill="#FFFFFF"></path>
        <polygon id="Fill-8" fill="#FFFFFF" points="8.54522222 34.7104444 7.89744444 34.7104444 7.89744444 31.3037778 6.73188889 31.3037778 6.73188889 30.7493333 9.71077778 30.7493333 9.71077778 31.3037778 8.54522222 31.3037778"></polygon>
        <polygon id="Fill-10" fill="#FFFFFF" points="13.1138889 34.7104444 10.8727778 34.7104444 10.8727778 30.7493333 13.1138889 30.7493333 13.1138889 31.296 11.5205556 31.296 11.5205556 32.3748889 13.0138889 32.3748889 13.0138889 32.9171111 11.5205556 32.9171111 11.5205556 34.1604444 13.1138889 34.1604444"></polygon>
        <path d="M16.8096667,33.6345556 C16.8096667,33.9867778 16.683,34.2634444 16.4285556,34.4645556 C16.173,34.6645556 15.8218889,34.7645556 15.3741111,34.7645556 C14.9252222,34.7645556 14.5585556,34.6956667 14.273,34.5567778 L14.273,33.9434444 C14.4541111,34.0278889 14.6463333,34.0956667 14.8485556,34.1434444 C15.053,34.1923333 15.2418889,34.2167778 15.4174444,34.2167778 C15.6741111,34.2167778 15.863,34.1678889 15.9841111,34.0712222 C16.1074444,33.9734444 16.1674444,33.8423333 16.1674444,33.6778889 C16.1674444,33.5301111 16.1118889,33.4045556 15.9996667,33.3012222 C15.8874444,33.1978889 15.6563333,33.0767778 15.3052222,32.9356667 C14.9452222,32.789 14.6896667,32.6223333 14.5418889,32.4334444 C14.3941111,32.2456667 14.3196667,32.0201111 14.3196667,31.7567778 C14.3196667,31.4256667 14.4363333,31.1656667 14.6718889,30.9756667 C14.9063333,30.7867778 15.2218889,30.6923333 15.6174444,30.6923333 C15.9974444,30.6923333 16.3741111,30.7745556 16.7507778,30.9412222 L16.5441111,31.469 C16.1918889,31.3212222 15.8774444,31.2467778 15.6018889,31.2467778 C15.3918889,31.2467778 15.233,31.2934444 15.1241111,31.3845556 C15.0163333,31.4756667 14.9618889,31.5956667 14.9618889,31.7456667 C14.9618889,31.849 14.983,31.9367778 15.0274444,32.0101111 C15.0696667,32.0834444 15.1418889,32.1523333 15.2407778,32.2178889 C15.3407778,32.2823333 15.5185556,32.3678889 15.7774444,32.4745556 C16.0685556,32.5956667 16.2807778,32.709 16.4163333,32.8134444 C16.553,32.9178889 16.6518889,33.0367778 16.7152222,33.169 C16.7785556,33.3001111 16.8096667,33.4556667 16.8096667,33.6345556" id="Fill-12" fill="#FFFFFF"></path>
        <polygon id="Fill-14" fill="#FFFFFF" points="19.5001111 34.7104444 18.8523333 34.7104444 18.8523333 31.3037778 17.6867778 31.3037778 17.6867778 30.7493333 20.6656667 30.7493333 20.6656667 31.3037778 19.5001111 31.3037778"></polygon>
        <path d="M25.1283333,34.7104444 L24.3338889,34.7104444 L22.3861111,31.5537778 L22.3638889,31.5537778 L22.3772222,31.7293333 C22.4027778,32.066 22.4161111,32.3726667 22.4161111,32.6504444 L22.4161111,34.7104444 L21.8272222,34.7104444 L21.8272222,30.7493333 L22.6127778,30.7493333 L24.5561111,33.8893333 L24.5727778,33.8893333 C24.5694444,33.8482222 24.5616667,33.696 24.5505556,33.436 C24.5405556,33.1737778 24.535,32.9704444 24.535,32.8248889 L24.535,30.7493333 L25.1283333,30.7493333 L25.1283333,34.7104444 Z" id="Fill-16" fill="#FFFFFF"></path>
        <polygon id="Fill-18" fill="#FFFFFF" points="28.9705556 34.7104444 26.7294444 34.7104444 26.7294444 30.7493333 28.9705556 30.7493333 28.9705556 31.296 27.3772222 31.296 27.3772222 32.3748889 28.8705556 32.3748889 28.8705556 32.9171111 27.3772222 32.9171111 27.3772222 34.1604444 28.9705556 34.1604444"></polygon>
        <polygon id="Fill-20" fill="#FFFFFF" points="31.7505556 34.7104444 31.1027778 34.7104444 31.1027778 31.3037778 29.9372222 31.3037778 29.9372222 30.7493333 32.9161111 30.7493333 32.9161111 31.3037778 31.7505556 31.3037778"></polygon>
    </g>
</svg>