<?xml version="1.0" encoding="UTF-8"?><svg version="1.1" viewBox="0 0 128 44" xmlns="http://www.w3.org/2000/svg"><g fill="none" fill-rule="evenodd"><g fill-rule="nonzero"><g transform="translate(104.3)" fill="#36f"><path d="m22.599 20.108l-1.3353-1.368c-0.83147 1.2582-1.8931 2.345-3.1215 3.196l1.3361 1.368c0.86229 0.88288 2.259 0.88288 3.1207-2.696e-4 0.86281-0.88207 0.86281-2.3132 0-3.1958z"/><path d="m11.659 0.23649c-2.4025 0-4.6341 0.74858-6.4848 2.0303l3.2219 3.2988c0.97975-0.51398 2.0867-0.80926 3.2629-0.80926 3.9622 0 7.1741 3.2885 7.1741 7.3453 0 1.2043-0.28866 2.3377-0.79039 3.3409l3.2211 3.298c-0.83121 1.2582-1.8929 2.3447-3.1218 3.196l-3.2213-3.2985c-0.97923 0.51344-2.0859 0.80872-3.2616 0.80872-3.9622 0-7.1741-3.2885-7.1741-7.3453 0-1.2038 0.2884-2.3369 0.78986-3.3395l-3.2219-3.2991c-1.2513 1.8947-1.9824 4.1792-1.9824 6.6386 0 6.5531 5.1882 11.865 11.588 11.865s11.588-5.3121 11.588-11.865c0-6.5531-5.1885-11.865-11.588-11.865z"/></g><path d="m12.186 1.3146h-7.901e-4 -12.115v3.7756 6.4722 3.7764 7.5498h4.215v-6.4757c0.002107-0.58652 0.46117-1.0622 1.0316-1.0741l6.8693 2.697e-4c3.7826 0 6.8488-3.1394 6.8488-7.012-2.634e-4 -3.8729-3.0667-7.0123-6.8488-7.0123zm0 10.248h-7.901e-4v-2.697e-4h-7.9002v-6.4722h7.9004 7.901e-4c1.7462 0 3.1608 1.4489 3.1608 3.236 0 1.7879-1.4143 3.2362-3.161 3.2365z" fill="#000"/><path d="m39.578 1.3146l-0.0018436 13.484c0.0015803 2.681-2.3577 4.8542-5.2662 4.8542h-1.0532c-2.909 0-5.2691-2.1732-5.2691-4.8542v-8.09e-4h7.901e-4v-13.483h-4.214l-0.0010535 13.484c0 4.766 4.2451 8.6295 9.4812 8.6295h1.0538c5.2372 0 9.4812-3.8637 9.4812-8.6295v-8.09e-4h0.0015803v-13.483h-4.2132z" fill="#000"/><polygon points="78.032 19.113 78.032 1.3146 73.817 1.3146 73.817 22.888 90.674 22.888 90.674 19.113" fill="#000"/><rect x="94.888" y="1.3146" width="4.2145" height="21.574" fill="#000"/><path d="m49.587 1.317v3.7753 4.8539 3.7753 5.3933 3.7753h12.642 2.634e-4c3.4908-2.696e-4 6.3207-2.8978 6.3207-6.4719 0-1.8944-0.79987-3.5933-2.0667-4.7768 0.955-1.0962 1.5402-2.5375 1.5402-4.1221 0-3.4255-2.712-6.2022-6.0576-6.2022h-12.379zm4.214 3.7753h8.1646c1.3092 0 2.3704 1.0865 2.3704 2.427s-1.0611 2.427-2.3704 2.427h-8.1646v-4.8539zm8.428 14.022h-8.4282v-4.3154c5.267e-4 -0.59515 0.4717-1.0773 1.053-1.0776h7.3753v-0.013753 0.013753c1.4544 2.696e-4 2.6335 1.2076 2.6335 2.6966 0 1.4891-1.1791 2.6961-2.6335 2.6964z" fill="#000"/></g><path d="m5.8481 44l-3.5195-10.135h-0.066406c0.094076 1.5052 0.14111 2.9163 0.14111 4.2334v5.9019h-1.8013v-12.136h2.7974l3.3701 9.6538h0.049805l3.4697-9.6538h2.8057v12.136h-1.9092v-6.0015c0-0.60319 0.015218-1.389 0.045654-2.3574 0.030436-0.96843 0.056722-1.555 0.078857-1.7598h-0.066406l-3.644 10.119h-1.7515zm23.307 0h-6.8647v-12.136h6.8647v1.6768h-4.8809v3.3037h4.5737v1.6602h-4.5737v3.8101h4.8809v1.6851zm18.493-6.1841c0 2.0033-0.55615 3.5347-1.6685 4.5945-1.1123 1.0597-2.7143 1.5896-4.8062 1.5896h-3.395v-12.136h3.752c1.9313 0 3.4338 0.52018 4.5073 1.5605 1.0736 1.0404 1.6104 2.5041 1.6104 4.3911zm-2.0918 0.066406c0-2.9053-1.3585-4.3579-4.0757-4.3579h-1.7183v8.8071h1.4111c2.9219 0 4.3828-1.4831 4.3828-4.4492zm10.698 6.1177v-12.136h1.9839v12.136h-1.9839zm18.717 0l-1.2119-3.3701h-4.6401l-1.187 3.3701h-2.0918l4.5405-12.186h2.1582l4.5405 12.186h-2.1084zm-1.7349-5.0801l-1.1372-3.3037c-0.083008-0.22136-0.19783-0.56998-0.34448-1.0459-0.14665-0.47591-0.24764-0.82454-0.30298-1.0459-0.14941 0.68067-0.368 1.425-0.65576 2.2329l-1.0957 3.1626h3.5361z" fill="#000"/><path d="m91 38.399c0-0.86263 0.12614-1.6699 0.37842-2.4219 0.25228-0.75196 0.61605-1.4111 1.0913-1.9775h1.2207c-0.45899 0.62826-0.80566 1.3184-1.04 2.0703-0.23438 0.75196-0.35156 1.5251-0.35156 2.3193 0 0.79753 0.11963 1.5682 0.35889 2.312 0.23926 0.74382 0.58024 1.4168 1.0229 2.019h-1.2109c-0.47852-0.55339-0.8431-1.1995-1.0938-1.9385-0.25065-0.73894-0.37598-1.5332-0.37598-2.3828zm9.8096 0.10156c0 1.1751-0.33447 2.0752-1.0034 2.7002-0.66895 0.625-1.6349 0.9375-2.8979 0.9375h-2.0215v-7.1387h2.2412c1.1654 0 2.0703 0.30761 2.7148 0.92285 0.64453 0.61524 0.9668 1.4746 0.9668 2.5781zm-1.5723 0.039062c0-1.5332-0.67708-2.2998-2.0312-2.2998h-0.80566v4.6484h0.64941c1.4583 0 2.1875-0.78287 2.1875-2.3486zm7.1631 3.5986h-4.1113v-7.1387h4.1113v1.2402h-2.5977v1.5674h2.417v1.2402h-2.417v1.8408h2.5977v1.25zm4.5117 0l-1.7188-5.6006h-0.043945c0.061849 1.1393 0.092774 1.8994 0.092774 2.2803v3.3203h-1.3525v-7.1387h2.0605l1.6895 5.459h0.029297l1.792-5.459h2.0605v7.1387h-1.4111v-3.3789c0-0.15951 0.002441-0.34342 0.007324-0.55176s0.026855-0.76171 0.065918-1.6602h-0.043946l-1.8408 5.5908h-1.3867zm12.886-3.5791c0 1.1816-0.29297 2.0898-0.87891 2.7246-0.58594 0.63477-1.4258 0.95215-2.5195 0.95215-1.0938 0-1.9336-0.31738-2.5195-0.95215-0.58594-0.63477-0.87891-1.5462-0.87891-2.7344s0.29378-2.0955 0.88135-2.7222c0.58757-0.62663 1.4298-0.93994 2.5269-0.93994 1.097 0 1.936 0.31575 2.5171 0.94727 0.58106 0.63151 0.87158 1.5397 0.87158 2.7246zm-5.21 0c0 0.79753 0.15136 1.3981 0.4541 1.8018 0.30274 0.40365 0.75521 0.60547 1.3574 0.60547 1.2077 0 1.8115-0.8024 1.8115-2.4072 0-1.6081-0.60058-2.4121-1.8018-2.4121-0.60222 0-1.0563 0.20263-1.3623 0.60791s-0.45898 1.0067-0.45898 1.8042zm8.7793-0.16016c0 0.85612-0.12614 1.6536-0.37842 2.3926-0.25228 0.73894-0.61605 1.3818-1.0913 1.9287h-1.2109c0.43946-0.59896 0.77962-1.2703 1.0205-2.0142 0.24089-0.74382 0.36133-1.5161 0.36133-2.3169 0-0.79427-0.11719-1.5674-0.35156-2.3193s-0.58105-1.4421-1.04-2.0703h1.2207c0.47852 0.56966 0.8431 1.2313 1.0938 1.9849s0.37598 1.5584 0.37598 2.4146z" fill="#000"/></g></svg>
