<!-- Generated by IcoMoon.io -->
<svg version="1.1" xmlns="http://www.w3.org/2000/svg" width="796" height="1024" viewBox="0 0 796 1024">
<title></title>
<g id="icomoon-ignore">
</g>
<path d="M779.13 136.519c-252.629 0-365.966-128.48-367.611-130.426-3.29-3.857-8.172-6.076-13.28-6.093-4.692 0.205-9.99 2.219-13.314 6.076-1.108 1.331-114.359 130.443-367.611 130.443-9.575 0-17.314 7.629-17.314 17.067v325.723c0 178.060 81.203 347.278 217.222 452.633 54.833 42.48 114.082 73.217 176.083 91.359 1.61 0.461 3.255 0.7 4.917 0.7s3.307-0.239 4.917-0.7c62.001-18.142 121.25-48.863 176.083-91.359 136.002-105.354 217.222-274.573 217.222-452.633v-325.723c0-9.438-7.757-17.067-17.314-17.067zM761.816 479.308c0 167.666-76.251 326.849-203.994 425.803-49.916 38.674-103.572 66.92-159.601 83.986-56.011-17.067-109.684-45.313-159.601-83.986-127.743-98.954-203.994-258.138-203.994-425.803v-308.844c211.958-4.642 326.629-93.817 363.594-128.787 36.965 34.97 151.636 124.128 363.594 128.787v308.844zM345.397 298.779v44.461c0 2.518-3.645 5.159-7.026 6.568-6.216 2.588-13.735 2.254-16.728-0.722l-31.449-31.449c-12.977-12.995-34.125-12.96-47.067 0l-40.059 40.077c-6.304 6.286-9.79 14.65-9.79 23.543 0 8.91 3.469 17.256 9.773 23.543l31.431 31.449c2.166 2.166 3.011 4.068 3.205 3.61-0.458 0.44-2.624 1.708-7.114 1.708h-43.651c-20.426 0-35.217 25.145-35.217 42.102v45.94c0 18.436 16.781 35.217 35.217 35.217h43.634c2.853 0 4.93 4.684 5.318 5.599 2.571 6.216 1.937 13.981-1.391 17.309l-31.431 31.449c-12.977 12.977-12.977 34.090 0 47.067l40.077 40.094c12.977 12.977 34.125 12.942 47.067 0l31.449-31.449c1.373-1.373 6.022-1.462 11.357 0.757 7.396 3.081 12.396 8.927 12.396 12.432v35.217c0 1.338-0.088 2.694-0.176 4.015-0.37 6.498-0.968 16.341 6.304 24.053 3.081 3.275 8.611 7.149 17.503 7.149h56.682c8.857 0 14.509-3.839 17.697-7.043 7.818-7.906 7.713-18.366 7.66-26.008l-0.018-37.383c0-3.698 4.807-9.667 11.991-12.643 4.261-1.761 8.611-2.007 10.090-0.528l31.449 31.449c12.96 12.995 34.125 12.96 47.085 0l40.077-40.094c6.286-6.286 9.755-14.65 9.755-23.525 0-8.892-3.451-17.239-9.755-23.543l-31.449-31.449c-2.271-2.271-3.046-3.856-3.205-3.61 0.458-0.44 2.624-1.708 7.114-1.708h45.324c20.426 0 35.217-25.145 35.217-42.102v-56.664c0-16.957-14.791-42.102-35.217-42.102h-45.307c-4.701 0-6.832-1.479-6.903-0.88 0.035-0.423 0.652-2.113 2.976-4.437l31.449-31.449c6.286-6.286 9.755-14.65 9.755-23.543 0-8.875-3.451-17.239-9.755-23.525l-40.077-40.094c-12.96-12.995-34.125-12.995-47.085 0l-31.449 31.449c-2.941 2.941-9.544 3.31-15.302 0.933-3.134-1.303-6.779-3.856-6.779-6.779v-44.461c0-18.366-14.932-33.298-33.298-33.298h-39.073c-18.366 0-33.28 14.932-33.28 33.298zM380.614 300.698h35.217v42.542c0 16.957 10.917 32.012 28.508 39.302 19.070 7.889 40.658 4.473 53.688-8.558l30.093-30.093 37.348 37.365-30.075 30.093c-12.502 12.502-16.517 28.279-10.724 42.207 5.934 14.316 21.077 23.208 39.549 23.208h41.926c1.514 1.955 3.205 5.335 3.381 6.885v56.4c-0.211 1.778-1.884 5.212-3.398 7.167h-41.926c-18.471 0-33.615 8.892-39.549 23.208-5.776 13.928-1.778 29.723 10.724 42.207l30.075 30.093-37.348 37.365-30.093-30.093c-11.868-11.85-30.445-14.545-48.476-7.096-20.162 8.364-33.703 26.518-33.703 45.183v35.217h-35.217v-35.217c0-18.436-13.717-36.485-34.143-44.972-18.665-7.73-37.735-5.089-49.726 6.903l-30.075 30.075-37.348-37.365 30.058-30.075c13.576-13.559 17.221-35.939 9.051-55.678-6.991-16.869-21.5-27.364-37.858-27.364l-42.489 0.176c-0.44-0.229-1.162-0.898-1.162-0.176l-0.018-45.659c0.211-1.778 1.884-5.212 3.398-7.167h40.235c18.489 0 33.632-8.892 39.566-23.208 5.776-13.946 1.761-29.723-10.741-42.207l-30.058-30.075 37.348-37.365 30.075 30.075c13.171 13.206 35.358 16.57 55.114 8.364 17.749-7.36 28.772-22.363 28.772-39.126v-42.542zM303.407 512c0 52.281 42.534 94.815 94.815 94.815s94.815-42.534 94.815-94.815c0-52.281-42.534-94.815-94.815-94.815s-94.815 42.534-94.815 94.815zM398.222 455.111c31.365 0 56.889 25.524 56.889 56.889s-25.524 56.889-56.889 56.889c-31.365 0-56.889-25.524-56.889-56.889s25.505-56.889 56.889-56.889z"></path>
</svg>
