<?xml version="1.0" standalone="no"?>
<!DOCTYPE svg PUBLIC "-//W3C//DTD SVG 20010904//EN"
 "http://www.w3.org/TR/2001/REC-SVG-20010904/DTD/svg10.dtd">
<svg version="1.0" xmlns="http://www.w3.org/2000/svg"
 width="700.000000pt" height="700.000000pt" viewBox="0 0 700.000000 700.000000"
 preserveAspectRatio="xMidYMid meet">
<metadata>
Created by potrace 1.11, written by Peter Selinger 2001-2013
</metadata>
<g transform="translate(0.000000,700.000000) scale(0.100000,-0.100000)"
fill="#000000" stroke="none">
<path d="M3220 6924 c-19 -2 -78 -9 -130 -14 -403 -45 -860 -187 -1220 -377
-113 -60 -320 -185 -320 -193 0 -3 216 -221 479 -484 l479 -479 104 46 c124
56 220 89 348 122 195 49 280 59 525 59 245 0 329 -9 526 -59 274 -70 531
-195 772 -377 115 -87 320 -295 408 -413 392 -529 521 -1174 361 -1805 -32
-126 -88 -283 -133 -372 -16 -32 -29 -63 -29 -70 0 -7 214 -227 476 -489 l477
-477 -64 -88 c-198 -275 -464 -543 -749 -758 l-115 -86 -481 481 -481 481 -53
-27 c-75 -38 -261 -109 -350 -133 -749 -204 -1534 3 -2079 549 -636 636 -808
1590 -432 2403 l39 84 -477 476 c-262 262 -481 476 -486 476 -6 0 -40 -49 -77
-108 -271 -437 -431 -898 -494 -1427 -25 -201 -25 -612 -1 -800 125 -973 607
-1804 1380 -2379 764 -568 1726 -793 2678 -626 415 73 893 259 1228 477 l84
54 236 -233 c151 -149 256 -245 293 -266 194 -114 424 -121 634 -21 104 51
237 186 292 299 55 113 73 185 74 300 0 113 -19 195 -70 300 -32 68 -59 99
-276 317 l-239 243 33 52 c300 473 470 947 536 1498 24 199 24 581 0 780 -69
574 -267 1103 -584 1565 -482 701 -1202 1202 -2022 1405 -285 71 -450 90 -785
95 -154 2 -296 1 -315 -1z"/>
</g>
</svg>
