<?xml version="1.0" encoding="UTF-8"?>
<svg width="20px" height="20px" viewBox="0 0 20 20" version="1.1" xmlns="http://www.w3.org/2000/svg" xmlns:xlink="http://www.w3.org/1999/xlink">
    <!-- Generator: Sketch 48.2 (47327) - http://www.bohemiancoding.com/sketch -->
    <title>reddit-social-logo-character</title>
    <desc>Created with Sketch.</desc>
    <defs></defs>
    <g id="Desktop-HD-Copy-4" stroke="none" stroke-width="1" fill="none" fill-rule="evenodd" transform="translate(-815.000000, -1227.000000)">
        <g id="reddit-social-logo-character" transform="translate(815.000000, 1227.000000)" fill="#000000" fill-rule="nonzero">
            <path d="M5,9.24074998 C4.78284063,9.0879625 4.51544788,9 4.23716381,9 C3.55478995,9 3,9.49865364 3,10.1113992 C3,10.4664406 3.19093132,10.7939563 3.50100022,11 C3.75839075,10.3389847 4.28050678,9.73860576 5,9.24074998 Z" id="Shape"></path>
            <path d="M15.000721,6 C15.5517904,6 16,5.55130978 16,4.99975967 C16,4.44820957 15.5517904,4 15.000721,4 C14.4491709,4 14,4.44820957 14,4.99975967 C14,5.55130978 14.4491709,6 15.000721,6 Z" id="Shape"></path>
            <path d="M10,0 C4.47734015,0 0,4.47734015 0,10 C0,15.5226598 4.47734015,20 10,20 C15.5226598,20 20,15.5226598 20,10 C20,4.47734015 15.5226598,0 10,0 Z M16.3128389,11.2599488 C16.3396419,11.4174936 16.3568286,11.5768798 16.3568286,11.7395396 C16.3568286,14.08 13.4919693,15.9838363 9.97033248,15.9838363 C6.44890026,15.9838363 3.58445013,14.08 3.58445013,11.7395396 C3.58445013,11.5668542 3.60450128,11.3978517 3.63478261,11.2308951 C3.1543734,10.949156 2.85074169,10.4331458 2.85074169,9.86782609 C2.85074169,8.99457801 3.56051151,8.28480818 4.43314578,8.28480818 C4.83191816,8.28480818 5.2116624,8.44337596 5.5030179,8.71202046 C6.62956522,7.97749361 8.16245524,7.51959079 9.85452685,7.49913043 L10.8396931,4.38322251 C10.8748849,4.27212276 10.9898721,4.20705882 11.1021995,4.2340665 L13.681023,4.84112532 C13.8696675,4.35948849 14.3365729,4.01636829 14.8847059,4.01636829 C15.5981586,4.01636829 16.1790281,4.59703325 16.1790281,5.31069054 C16.1790281,6.02434783 15.5981586,6.60542199 14.8847059,6.60542199 C14.1706394,6.60542199 13.5899744,6.02434783 13.5899744,5.31069054 C13.5899744,5.29861893 13.5930435,5.28797954 13.5934527,5.27590793 L11.201023,4.71242967 L10.3171355,7.50690537 C11.9351407,7.56480818 13.396624,8.02005115 14.4759079,8.73452685 C14.7693095,8.4511509 15.1529412,8.28460358 15.5668542,8.28460358 C16.4396931,8.28460358 17.1500767,8.99478261 17.1500767,9.86782609 C17.1494629,10.4599488 16.8253708,10.9865985 16.3128389,11.2599488 Z" id="Shape"></path>
            <path d="M7,10.8486133 C7,10.3807242 7.40725409,10 7.9077469,10 C8.4082397,10 8.81529667,10.3807242 8.81529667,10.8486133 C8.81529667,11.3165023 8.40843682,11.6970423 7.9077469,11.6970423 C7.40705697,11.6970423 7,11.3165023 7,10.8486133 Z M12.2006702,13.3644154 C11.7433471,13.7923155 11.0252316,14 10.0057165,14 C10.0033511,14 10.0011827,13.9983415 9.99842302,13.9983415 C9.99566332,13.9983415 9.99349497,14 9.99073527,14 C8.97122019,14 8.25330179,13.7923155 7.79578159,13.3644154 C7.7125961,13.2866489 7.7125961,13.1604165 7.79578159,13.0822814 C7.87936132,13.0045149 8.01438991,13.0045149 8.09796964,13.0822814 C8.47112162,13.4314936 9.09008476,13.6008477 9.99073527,13.6008477 C9.99349497,13.6008477 9.99566332,13.6023219 9.99842302,13.6023219 C10.0011827,13.6023219 10.0033511,13.6008477 10.0057165,13.6008477 C10.9065642,13.6008477 11.5257244,13.4313093 11.8988764,13.0822814 C11.9824561,13.0045149 12.1174847,13.0045149 12.2010645,13.0822814 C12.28425,13.1604165 12.28425,13.2868331 12.2006702,13.3644154 Z M12.0924502,11.6970423 C11.5923517,11.6970423 11.1849005,11.3168709 11.1849005,10.8486133 C11.1849005,10.3803557 11.5919574,10 12.0924502,10 C12.592943,10 13,10.3807242 13,10.8486133 C13,11.3165023 12.592943,11.6970423 12.0924502,11.6970423 Z" id="Shape"></path>
            <path d="M15.7811816,9 C15.4905908,9 15.2179431,9.09400451 15,9.25767834 C15.7039387,9.75144736 16.212035,10.3460897 16.4573304,11 C16.7923414,10.8000196 17,10.4658032 17,10.0935139 C17,9.49062899 16.4538293,9 15.7811816,9 Z" id="Shape"></path>
        </g>
    </g>
</svg>