<?xml version="1.0" encoding="UTF-8"?>
<svg width="20px" height="20px" viewBox="0 0 20 20" version="1.1" xmlns="http://www.w3.org/2000/svg" xmlns:xlink="http://www.w3.org/1999/xlink">
    <!-- Generator: Sketch 48.2 (47327) - http://www.bohemiancoding.com/sketch -->
    <title>twitter</title>
    <desc>Created with Sketch.</desc>
    <defs></defs>
    <g id="Desktop-HD-Copy-4" stroke="none" stroke-width="1" fill="none" fill-rule="evenodd" transform="translate(-845.000000, -1227.000000)">
        <g id="twitter" transform="translate(845.000000, 1227.000000)" fill-rule="nonzero">
            <circle id="Oval" fill="#55ACEE" cx="10" cy="10" r="10"></circle>
            <path d="M16,7.36808811 C15.5796339,7.55158215 15.1274431,7.67569021 14.6532198,7.73111712 C15.1374102,7.44554807 15.50899,6.99369831 15.6843757,6.45440486 C15.2313106,6.71897366 14.7292844,6.91090222 14.1954335,7.0143543 C13.7677233,6.5659472 13.1583323,6.28571429 12.4835434,6.28571429 C11.1888718,6.28571429 10.138831,7.3193744 10.138831,8.59384893 C10.138831,8.77476096 10.1596394,8.95085327 10.1998575,9.11988811 C8.25120545,9.02366563 6.52340297,8.10481839 5.36687169,6.70795713 C5.16508199,7.04878095 5.04932394,7.44554807 5.04932394,7.86847944 C5.04932394,8.66907115 5.46356988,9.37585024 6.09237037,9.78965856 C5.70820055,9.77778136 5.34641294,9.67398502 5.03043895,9.50064684 C5.03026408,9.51045844 5.03026408,9.52027003 5.03026408,9.5299095 C5.03026408,10.6482592 5.83882179,11.5810492 6.91124488,11.7929452 C6.71470101,11.8459623 6.50714089,11.87402 6.29363549,11.87402 C6.14220579,11.87402 5.99549733,11.8597329 5.85246095,11.8328801 C6.15077398,12.7496618 7.01651126,13.4170224 8.04277102,13.4357849 C7.2401586,14.0549482 6.22928661,14.4238297 5.13045949,14.4238297 C4.94160951,14.4238297 4.75450814,14.4129853 4.57142857,14.3914686 C5.60852972,15.0466078 6.84130044,15.4285714 8.16534865,15.4285714 C12.4781227,15.4285714 14.8366491,11.911545 14.8366491,8.86117185 C14.8366491,8.76116244 14.8343759,8.66149729 14.8298296,8.56269281 C15.2883153,8.23736098 15.6857746,7.8309544 16,7.36808811 Z" id="Shape" fill="#F1F2F2"></path>
        </g>
    </g>
</svg>