<?xml version="1.0" encoding="UTF-8"?>
<svg width="20px" height="20px" viewBox="0 0 20 20" version="1.1" xmlns="http://www.w3.org/2000/svg" xmlns:xlink="http://www.w3.org/1999/xlink">
    <!-- Generator: Sketch 53.2 (72643) - https://sketchapp.com -->
    <title>Group 2</title>
    <desc>Created with Sketch.</desc>
    <g id="Editor" stroke="none" stroke-width="1" fill="none" fill-rule="evenodd">
        <g id="3-Publish-Story-Copy-2" transform="translate(-1032.000000, -792.000000)">
            <g id="Group-30" transform="translate(988.000000, 618.000000)">
                <g id="Group-29" transform="translate(35.000000, 153.000000)">
                    <g id="Group-25" transform="translate(0.000000, 10.000000)">
                        <g id="Group-3">
                            <g id="Group-2" transform="translate(9.000000, 11.000000)">
                                <path d="M2.53636364,14.7181818 C2.16703175,14.7203297 1.83310905,14.4988147 1.69148095,14.1577105 C1.54985286,13.8166062 1.62867277,13.4237186 1.89090909,13.1636364 L3.17272727,11.8818182 C3.39489989,11.6223853 3.743744,11.5093801 4.07583543,11.5892635 C4.40792686,11.669147 4.66721666,11.9284368 4.74710012,12.2605282 C4.82698359,12.5926196 4.71397833,12.9414637 4.45454545,13.1636364 L3.17272727,14.4454545 C3.0048814,14.6167402 2.77615388,14.7147663 2.53636364,14.7181818 Z" id="Shape" fill="#FFEDAA"></path>
                                <path d="M4.15454545,19.2272727 C3.78521357,19.2294206 3.45129087,19.0079057 3.30966277,18.6668014 C3.16803468,18.3256971 3.24685459,17.9328095 3.50909091,17.6727273 L4.79090909,16.3909091 C5.15160025,16.0820211 5.68926743,16.1027888 6.02505747,16.4385789 C6.36084752,16.7743689 6.38161527,17.3120361 6.07272727,17.6727273 L4.79090909,18.9545455 C4.62306322,19.1258311 4.3943357,19.2238572 4.15454545,19.2272727 Z M0.518181818,9.75454545 C-0.0135515965,9.22214991 -0.0135515965,8.35966827 0.518181818,7.82727273 L1.16363636,7.18181818 C1.51036717,6.8344022 1.95988164,6.60805095 2.44545455,6.53636364 L6.2,6 L8.46363636,3.73636364 C10.3356858,1.85523154 12.8824676,0.801165053 15.5363636,0.809090909 L18.1818182,0.809090909 C18.6838952,0.809090909 19.0909091,1.21610477 19.0909091,1.71818182 L19.0909091,4.38181818 C19.0988349,7.03571424 18.0447685,9.582496 16.1636364,11.4545455 L13.9,13.7181818 L13.3636364,17.4727273 C13.2919491,17.9583002 13.0655978,18.4078146 12.7181818,18.7545455 L12.0727273,19.4 C11.5403317,19.9317334 10.6778501,19.9317334 10.1454545,19.4 L0.518181818,9.75454545 Z" id="Shape" fill="#FFFFFF"></path>
                                <path d="M12.2727273,10 C11.0175347,10 10,8.98246534 10,7.72727273 C10,6.47208011 11.0175347,5.45454545 12.2727273,5.45454545 C13.5279199,5.45454545 14.5454545,6.47208011 14.5454545,7.72727273 C14.5454545,8.98246534 13.5279199,10 12.2727273,10 L12.2727273,10 Z M12.2727273,6.36363636 C11.5196117,6.36363636 10.9090909,6.97415716 10.9090909,7.72727273 C10.9090909,8.4803883 11.5196117,9.09090909 12.2727273,9.09090909 C13.0258428,9.09090909 13.6363636,8.4803883 13.6363636,7.72727273 C13.6363636,6.97415716 13.0258428,6.36363636 12.2727273,6.36363636 Z" id="Shape" fill="#E6B311"></path>
                                <path d="M12.7272727,9.54545455 C11.4720801,9.54545455 10.4545455,8.52791989 10.4545455,7.27272727 C10.4545455,6.01753466 11.4720801,5 12.7272727,5 C13.9824653,5 15,6.01753466 15,7.27272727 C15,8.52791989 13.9824653,9.54545455 12.7272727,9.54545455 Z M12.7272727,5.90909091 C11.9741572,5.90909091 11.3636364,6.5196117 11.3636364,7.27272727 C11.3636364,8.02584284 11.9741572,8.63636364 12.7272727,8.63636364 C13.4803883,8.63636364 14.0909091,8.02584284 14.0909091,7.27272727 C14.0909091,6.5196117 13.4803883,5.90909091 12.7272727,5.90909091 L12.7272727,5.90909091 Z" id="Shape" fill="#FFEDAA"></path>
                            </g>
                        </g>
                    </g>
                </g>
            </g>
        </g>
    </g>
</svg>