<?xml version="1.0" encoding="UTF-8"?>
<svg width="24px" height="24px" viewBox="0 0 24 24" version="1.1" xmlns="http://www.w3.org/2000/svg" xmlns:xlink="http://www.w3.org/1999/xlink">
    <!-- Generator: Sketch 59.1 (86144) - https://sketch.com -->
    <title>Artboard</title>
    <desc>Created with Sketch.</desc>
    <g id="Artboard" stroke="none" stroke-width="1" fill="none" fill-rule="evenodd">
        <g id="icon-/-main-/-Help">
            <rect id="Rectangle-Copy-5" x="0" y="0" width="24" height="24"></rect>
            <path d="M12,3 C16.9705627,3 21,7.02943725 21,12 C21,16.9705627 16.9705627,21 12,21 C7.02943725,21 3,16.9705627 3,12 C3,7.02943725 7.02943725,3 12,3 Z M12,4.5 C7.85786438,4.5 4.5,7.85786438 4.5,12 C4.5,16.1421356 7.85786438,19.5 12,19.5 C16.1421356,19.5 19.5,16.1421356 19.5,12 C19.5,7.85786438 16.1421356,4.5 12,4.5 Z M12,11.2454368 C12.4142136,11.2454368 12.75,11.5812232 12.75,11.9954368 L12.75,14.9934811 C12.75,15.4076947 12.4142136,15.7434811 12,15.7434811 C11.5857864,15.7434811 11.25,15.4076947 11.25,14.9934811 L11.25,11.9954368 C11.25,11.5812232 11.5857864,11.2454368 12,11.2454368 Z M12,7.99804433 C12.552,7.99804433 13,8.44475293 13,8.99739244 C13,9.55003194 12.552,9.99674055 12,9.99674055 C11.448,9.99674055 11,9.55003194 11,8.99739244 C11,8.44475293 11.448,7.99804433 12,7.99804433 Z" id="Combined-Shape" fill="#FF998E" fill-rule="evenodd"></path>
        </g>
    </g>
</svg>