<?xml version="1.0" encoding="UTF-8"?>
<svg width="80px" height="80px" viewBox="0 0 80 80" version="1.1" xmlns="http://www.w3.org/2000/svg" xmlns:xlink="http://www.w3.org/1999/xlink">
    <!-- Generator: Sketch 53 (72520) - https://sketchapp.com -->
    <title>il / email</title>
    <desc>Created with Sketch.</desc>
    <g id="il-/-email" stroke="none" stroke-width="1" fill="none" fill-rule="evenodd">
        <rect id="Rectangle" x="0" y="0" width="80" height="80"></rect>
        <g id="Group" transform="translate(0.000000, 10.000000)">
            <path d="M70,0 L10,0 C4.47666667,0 0,4.47666667 0,10 L0,50 C0,55.5233333 4.47666667,60 10,60 L70,60 C75.5233333,60 80,55.5233333 80,50 L80,10 C80,4.47666667 75.5233333,0 70,0" id="Fill-365" fill="#FFCE00"></path>
            <path d="M38.3333333,38.3333333 L77.01,2.88 C76.5533333,2.43 76.0533333,2.02333333 75.5166667,1.66666667 L4.48333333,1.66666667 C3.31666667,2.44 2.33333333,3.46 1.58,4.64333333 L38.3333333,38.3333333" id="Fill-366" fill="#EDBF00"></path>
            <path d="M40,23.3333333 L3.07,57.1866667 C4.86666667,58.92 7.30333333,60 10,60 L70,60 C72.6966667,60 75.1333333,58.92 76.93,57.1866667 L40,23.3333333" id="Fill-367" fill="#FFEC00"></path>
            <path d="M30.9833333,31.5966667 L36.08,36.2666667 C37.3566667,37.4366667 39.31,37.4366667 40.5866667,36.2666667 L47.35,30.07 L40,23.3333333 L30.9833333,31.5966667" id="Fill-368" fill="#F7D900"></path>
            <path d="M42.2533333,34.6 L76.93,2.81333333 C75.1333333,1.08 72.6966667,0 70,0 L10,0 C7.30333333,0 4.86666667,1.08 3.07,2.81333333 L37.7466667,34.6 C39.0233333,35.77 40.9766667,35.77 42.2533333,34.6" id="Fill-369" fill="#FFFF00"></path>
        </g>
    </g>
</svg>