<?xml version="1.0" encoding="UTF-8"?>
<svg width="40px" height="40px" viewBox="0 0 40 40" version="1.1" xmlns="http://www.w3.org/2000/svg" xmlns:xlink="http://www.w3.org/1999/xlink">
    <!-- Generator: Sketch 54.1 (76490) - https://sketchapp.com -->
    <title>icon / filled / engage</title>
    <desc>Created with Sketch.</desc>
    <g id="icon-/-filled-/-engage" stroke="none" stroke-width="1" fill="none" fill-rule="evenodd">
        <rect id="Rectangle-Copy-2" x="0" y="0" width="40" height="40"></rect>
        <path d="M16.2226087,10.493913 L20.6469565,14.9182609 L15.4817391,20.0834783 C14.2610642,21.3056732 14.2610642,23.2856311 15.4817391,24.5078261 L15.4817391,24.5078261 C16.7039341,25.7285011 18.683892,25.7285011 19.906087,24.5078261 L25.0713043,19.3426087 L29.4956522,23.7669565 L24.3304348,28.9321739 C22.5691355,30.6940484 20.1799558,31.6839076 17.6886957,31.6839076 C15.1974355,31.6839076 12.8082558,30.6940484 11.0469565,28.9321739 L11.0469565,28.9321739 C9.28508201,27.1708746 8.29522284,24.7816949 8.29522284,22.2904348 C8.29522284,19.7991747 9.28508201,17.4099949 11.0469565,15.6486957 L16.2226087,10.493913 Z" id="Shape" fill="#FC5D49"></path>
        <path d="M20.1252174,15.4504348 L15.7008696,11.026087 L17.1721739,9.55478261 C17.5636207,9.16290008 18.0947981,8.94270611 18.6486957,8.94270611 C19.2025932,8.94270611 19.7337706,9.16290008 20.1252174,9.55478261 L21.5965217,11.026087 C21.9884043,11.4175338 22.2085982,11.9487111 22.2085982,12.5026087 C22.2085982,13.0565063 21.9884043,13.5876836 21.5965217,13.9791304 L20.1252174,15.4504348 Z M30.4556522,22.8278261 C30.8475347,22.4363793 31.0677287,21.9052019 31.0677287,21.3513043 C31.0677287,20.7974068 30.8475347,20.2662294 30.4556522,19.8747826 L28.9843478,18.4034783 C28.592901,18.0115957 28.0617236,17.7914018 27.5078261,17.7914018 C26.9539285,17.7914018 26.4227511,18.0115957 26.0313043,18.4034783 L24.56,19.8747826 L28.9843478,24.2991304 L30.4556522,22.8278261 Z" id="Shape" fill="#E6B311"></path>
        <path d="M20.6469565,14.9286957 L16.2226087,10.5043478 L17.693913,9.03304348 C18.0853598,8.64116095 18.6165372,8.42096698 19.1704348,8.42096698 C19.7243323,8.42096698 20.2555097,8.64116095 20.6469565,9.03304348 L22.1182609,10.5043478 C22.5101434,10.8957946 22.7303374,11.426972 22.7303374,11.9808696 C22.7303374,12.5347671 22.5101434,13.0659445 22.1182609,13.4573913 L20.6469565,14.9286957 Z M30.9773913,22.306087 C31.3692738,21.9146402 31.5894678,21.3834628 31.5894678,20.8295652 C31.5894678,20.2756677 31.3692738,19.7444903 30.9773913,19.3530435 L29.506087,17.8817391 C29.1146402,17.4898566 28.5834628,17.2696626 28.0295652,17.2696626 C27.4756677,17.2696626 26.9444903,17.4898566 26.5530435,17.8817391 L25.0817391,19.3530435 L29.506087,23.7773913 L30.9773913,22.306087 Z" id="Shape" fill="#FFC300"></path>
    </g>
</svg>