<?xml version="1.0" encoding="UTF-8"?>
<svg width="40px" height="40px" viewBox="0 0 40 40" version="1.1" xmlns="http://www.w3.org/2000/svg" xmlns:xlink="http://www.w3.org/1999/xlink">
    <!-- Generator: Sketch 54.1 (76490) - https://sketchapp.com -->
    <title>icon / filled / key</title>
    <desc>Created with Sketch.</desc>
    <g id="icon-/-filled-/-key" stroke="none" stroke-width="1" fill="none" fill-rule="evenodd">
        <rect id="Rectangle" x="0" y="0" width="40" height="40"></rect>
        <g id="key-copy" transform="translate(8.000000, 13.000000)" fill-rule="nonzero">
            <path d="M15.9999995,6 L16,12.52 C15.9996787,12.8517301 16.1638849,13.162028 16.4383504,13.348344 C16.712816,13.53466 17.0618121,13.5727404 17.37,13.45 L20.51,12.2 C20.8158188,12.0744289 21.1639348,12.1081175 21.44,12.29 L22.44,12.96 C22.7467175,13.167319 23.1428766,13.1882216 23.469708,13.0143306 C23.7965393,12.8404396 24.0005583,12.5002114 24,12.13 L23.9999995,6 L15.9999995,6 Z" id="Path" fill="#118145"></path>
            <path d="M16,7.5 L22.5,7.5 C23.0522847,7.5 23.5,7.05228475 23.5,6.5 C23.4951504,6.32299233 23.4433867,6.15044656 23.35,6 L16,6 L16,7.5 Z" id="Path" fill="#0A582E"></path>
            <path d="M23,7 L10,7 C9.44771525,7 9,6.55228475 9,6 C9,5.44771525 9.44771525,5 10,5 L23,5 C23.5522847,5 24,5.44771525 24,6 C24,6.55228475 23.5522847,7 23,7 Z" id="Path" fill="#1DAB5F"></path>
            <path d="M6,0 C2.6862915,-2.02906125e-16 4.05812251e-16,2.6862915 0,6 C-4.05812251e-16,9.3137085 2.6862915,12 6,12 C9.3137085,12 12,9.3137085 12,6 C12,4.40870106 11.367859,2.88257758 10.2426407,1.75735931 C9.11742242,0.632141042 7.59129894,9.74389576e-17 6,0 Z M6,8 C4.8954305,8 4,7.1045695 4,6 C4,4.8954305 4.8954305,4 6,4 C7.1045695,4 8,4.8954305 8,6 C8,6.53043298 7.78928632,7.03914081 7.41421356,7.41421356 C7.03914081,7.78928632 6.53043298,8 6,8 Z" id="Shape" fill="#3DC47E"></path>
        </g>
    </g>
</svg>