<svg xmlns="http://www.w3.org/2000/svg" viewBox="0 0 80 80"><defs><style>.cls-1{fill:none;}.cls-2{fill:#f7f8f9;}.cls-3,.cls-5{fill:#dee2e6;}.cls-4{fill:#36f;}.cls-5{opacity:0;}</style></defs><title>No People</title><g id="Layer_2" data-name="Layer 2"><g id="Layer_1-2" data-name="Layer 1"><path class="cls-1" d="M38.53,22.37a6,6,0,0,1-1.71-10.81,6.55,6.55,0,0,0-2.11,4.82A6.63,6.63,0,0,0,38.53,22.37Z"/><path class="cls-1" d="M64.43,25.8A5.8,5.8,0,1,1,58.63,20,5.8,5.8,0,0,1,64.43,25.8Z"/><path class="cls-2" d="M46,16.59a5.94,5.94,0,0,1-7.43,5.78,6.63,6.63,0,0,1-3.82-6,6.55,6.55,0,0,1,2.11-4.82A5.87,5.87,0,0,1,40,10.63,6,6,0,0,1,46,16.59Z"/><path class="cls-2" d="M48.2,43.34a14,14,0,0,0-1.83-1.09,14.19,14.19,0,0,0-12.74,0,14,14,0,0,0-1.83,1.09,14.32,14.32,0,1,0,16.4,0Zm-.07,19.92a.73.73,0,0,1-.53.22.74.74,0,0,1-.53-.22l-1.73-1.72a.75.75,0,0,1,0-1.06.74.74,0,0,1,1.06,0l1.73,1.72A.74.74,0,0,1,48.13,63.26Zm.15-15.35-7.22,7.22,3.19,3.19a.75.75,0,0,1,0,1.06.76.76,0,0,1-1.07,0L40,56.19l-7.07,7.07a.74.74,0,0,1-.53.22.73.73,0,0,1-.53-.22.74.74,0,0,1,0-1.06l7.07-7.07-7.22-7.22a.75.75,0,1,1,1.06-1.06L40,54.07l7.22-7.22a.75.75,0,1,1,1.06,1.06Z"/><path class="cls-3" d="M62.07,33.09a8.07,8.07,0,1,0-7-.06,11.91,11.91,0,0,0-2.79,1.19,12.41,12.41,0,0,0-9-10.37,8,8,0,1,0-6.52,0,12.41,12.41,0,0,0-9,10.37A12,12,0,0,0,24.79,33,8,8,0,0,0,21.4,17.84a1,1,0,0,0,0,2,6,6,0,1,1-6,6,6.26,6.26,0,0,1,.13-1.23,1,1,0,1,0-2-.42,7.58,7.58,0,0,0-.18,1.65,8.18,8.18,0,0,0,.42,2.56A8,8,0,0,0,18.12,33a12.4,12.4,0,0,0-9,11.9,1,1,0,0,0,2,0A10.38,10.38,0,0,1,31.26,41.3a16.32,16.32,0,1,0,17.48,0,10.38,10.38,0,0,1,20.11,3.64,1,1,0,0,0,2,0A12.4,12.4,0,0,0,62.07,33.09ZM34,16.59a5.93,5.93,0,0,1,2.78-5A5.87,5.87,0,0,1,40,10.63a6,6,0,1,1-6,6ZM54.32,55.06A14.32,14.32,0,1,1,31.8,43.34a14,14,0,0,1,1.83-1.09,14.19,14.19,0,0,1,12.74,0,14,14,0,0,1,1.83,1.09A14.3,14.3,0,0,1,54.32,55.06ZM47,40.33a16.07,16.07,0,0,0-13.94,0,12.31,12.31,0,0,0-3.41-4.76,10.38,10.38,0,0,1,20.76,0A12.31,12.31,0,0,0,47,40.33ZM52.84,25.8a5.8,5.8,0,1,1,5.79,5.79A5.8,5.8,0,0,1,52.84,25.8Z"/><path class="cls-4" d="M48.13,62.2,46.4,60.48a.74.74,0,0,0-1.06,0,.75.75,0,0,0,0,1.06l1.73,1.72a.74.74,0,0,0,.53.22.73.73,0,0,0,.53-.22A.74.74,0,0,0,48.13,62.2Z"/><path class="cls-4" d="M48.28,47.91l-7.22,7.22,3.19,3.19a.75.75,0,0,1,0,1.06.76.76,0,0,1-1.07,0L40,56.19l-7.07,7.07a.74.74,0,0,1-.53.22.73.73,0,0,1-.53-.22.74.74,0,0,1,0-1.06l7.07-7.07-7.22-7.22a.75.75,0,1,1,1.06-1.06L40,54.07l7.22-7.22a.75.75,0,1,1,1.06,1.06Z"/><path class="cls-3" d="M15.69,22.81a1,1,0,0,0,.82-.42A5.78,5.78,0,0,1,17.89,21a1,1,0,1,0-1.18-1.62,7.82,7.82,0,0,0-1.84,1.88,1,1,0,0,0,.24,1.39A1,1,0,0,0,15.69,22.81Z"/><rect class="cls-5" width="80" height="80"/></g></g></svg>