<svg xmlns="http://www.w3.org/2000/svg" viewBox="0 0 80 80"><defs><style>.cls-1,.cls-4{fill:#dee2e6;}.cls-2{fill:#f7f8f9;}.cls-3{fill:#36f;}.cls-4{opacity:0;}</style></defs><title>No Publications</title><g id="Layer_2" data-name="Layer 2"><g id="Layer_1-2" data-name="Layer 1"><path class="cls-1" d="M40.9,56.31H31.31a1,1,0,0,1,0-2H40.9a1,1,0,1,1,0,2Z"/><path class="cls-1" d="M28.7,56.31H25a1,1,0,0,1,0-2H28.7a1,1,0,1,1,0,2Z"/><path class="cls-1" d="M39,50H25.15a1,1,0,0,1,0-2H39a1,1,0,0,1,0,2Z"/><path class="cls-1" d="M45.64,43.66H25.33a1,1,0,0,1,0-2H45.64a1,1,0,0,1,0,2Z"/><path class="cls-1" d="M35.62,37.33H25.52a1,1,0,1,1,0-2h10.1a1,1,0,0,1,0,2Z"/><path class="cls-1" d="M42.73,19.74h-17a.75.75,0,0,1,0-1.5h17a.75.75,0,0,1,0,1.5Z"/><path class="cls-1" d="M32.21,24.23H25.7a.75.75,0,0,1,0-1.5h6.51a.75.75,0,0,1,0,1.5Z"/><path class="cls-1" d="M59.86,23.87H58.51l-9.09-10L49,13.5v3.43a1,1,0,1,1-2,0V11a1,1,0,0,1,2,0V12l.39.43Z"/><path class="cls-2" d="M58.51,23.87H50.92a1.91,1.91,0,0,1-1.5-.76V13.92Z"/><path class="cls-2" d="M59.8,26.74H52a2.63,2.63,0,0,1-2-1,3.37,3.37,0,0,0,.9.12h8.88Z"/><path class="cls-1" d="M46,67.54a1,1,0,0,1-1,1H19.66a3.48,3.48,0,0,1-3.47-3.46V30.25a1,1,0,0,1,2,0V65.08a1.47,1.47,0,0,0,1.47,1.46H45A1,1,0,0,1,46,67.54Z"/><path class="cls-1" d="M52.54,50H43a1,1,0,0,1,0-2h9.51a1,1,0,0,1,0,2Z"/><path class="cls-1" d="M53,43.66H49.67a1,1,0,0,1,0-2H53a1,1,0,1,1,0,2Z"/><path class="cls-1" d="M52.92,37.33H39.82a1,1,0,0,1,0-2h13.1a1,1,0,0,1,0,2Z"/><path class="cls-1" d="M62,45a1,1,0,0,1-1,1h0a1,1,0,0,1-1-1L59.8,26.74v-.87H50.91a3.37,3.37,0,0,1-.9-.12,3.91,3.91,0,0,1-3-3.68V19.61a1,1,0,0,1,2,0V22a1.77,1.77,0,0,0,.39,1.07,1.91,1.91,0,0,0,1.5.76h8.94L49.42,12.47,49,12V11a1,1,0,0,0-2,0v1H19.66a1.46,1.46,0,0,0-1.47,1.46v7.35a1,1,0,0,1-2,0V13.38a3.47,3.47,0,0,1,3.47-3.46H48a1,1,0,0,1,.74.32l12.69,13.9,0,.05a.83.83,0,0,1,.11.15.48.48,0,0,1,.08.16.85.85,0,0,1,.08.35v0Z"/><path class="cls-2" d="M61.48,48.62A13.33,13.33,0,1,0,74.81,62,13.33,13.33,0,0,0,61.48,48.62Zm4.58,18a.75.75,0,0,1,1.07,0l1.5,1.5a.75.75,0,0,1,0,1.07.75.75,0,0,1-1.06,0l-1.51-1.5A.77.77,0,0,1,66.06,66.6Zm2.7-10.79L62.55,62l2.7,2.7a.75.75,0,0,1,0,1.07.76.76,0,0,1-1.07,0l-2.7-2.7L55.4,69.17a.76.76,0,0,1-1.07,0,.77.77,0,0,1,0-1.07L60.41,62,54.2,55.81a.77.77,0,0,1,0-1.07.75.75,0,0,1,1.07,0L61.48,61l6.21-6.21a.76.76,0,0,1,1.07,1.07Z"/><path class="cls-1" d="M61.48,47.62A14.34,14.34,0,1,0,75.82,62,14.35,14.35,0,0,0,61.48,47.62Zm0,26.66A12.33,12.33,0,1,1,73.8,62,12.34,12.34,0,0,1,61.48,74.28Z"/><path class="cls-3" d="M68.76,55.81,62.55,62l2.7,2.7a.75.75,0,0,1,0,1.07.76.76,0,0,1-1.07,0l-2.7-2.7L55.4,69.17a.76.76,0,0,1-1.07,0,.77.77,0,0,1,0-1.07L60.41,62,54.2,55.81a.77.77,0,0,1,0-1.07.75.75,0,0,1,1.07,0L61.48,61l6.21-6.21a.76.76,0,0,1,1.07,1.07Z"/><line class="cls-3" x1="60.95" y1="61.48" x2="54.74" y2="55.27"/><line class="cls-3" x1="64.72" y1="65.25" x2="62.02" y2="62.55"/><line class="cls-3" x1="68.1" y1="68.63" x2="66.59" y2="67.13"/><path class="cls-3" d="M68.63,69.17a.75.75,0,0,1-1.06,0l-1.51-1.5a.77.77,0,0,1,0-1.07.75.75,0,0,1,1.07,0l1.5,1.5A.75.75,0,0,1,68.63,69.17Z"/><line class="cls-3" x1="60.95" y1="62.56" x2="54.87" y2="68.63"/><line class="cls-3" x1="68.23" y1="55.27" x2="62.02" y2="61.49"/><rect class="cls-4" width="80" height="80"/></g></g></svg>