<?xml version="1.0" encoding="utf-8"?>
<!-- Generator: Adobe Illustrator 22.0.1, SVG Export Plug-In . SVG Version: 6.00 Build 0)  -->
<svg version="1.1" id="Layer_1" xmlns="http://www.w3.org/2000/svg" xmlns:xlink="http://www.w3.org/1999/xlink" x="0px" y="0px"
	 viewBox="0 0 80 80" style="enable-background:new 0 0 80 80;" xml:space="preserve">
<style type="text/css">
	.st0{fill:#DEE2E6;}
	.st1{fill:#F7F8F9;}
	.st2{fill:#3366FF;}
</style>
<g>
	<g>
		<path class="st0" d="M25.6,35.5H16c-0.6,0-1-0.4-1-1s0.4-1,1-1h9.6c0.6,0,1,0.4,1,1S26.2,35.5,25.6,35.5z"/>
	</g>
	<g>
		<path class="st0" d="M13.4,35.5H9.7c-0.6,0-1-0.4-1-1s0.4-1,1-1h3.7c0.6,0,1,0.4,1,1S14,35.5,13.4,35.5z"/>
	</g>
	<g>
		<path class="st0" d="M23.7,29.2H9.8c-0.6,0-1-0.4-1-1s0.4-1,1-1h13.9c0.6,0,1,0.4,1,1S24.3,29.2,23.7,29.2z"/>
	</g>
	<g>
		<path class="st0" d="M30.3,22.9H10c-0.6,0-1-0.4-1-1s0.4-1,1-1h20.3c0.6,0,1,0.4,1,1S30.9,22.9,30.3,22.9z"/>
	</g>
	<g>
		<path class="st0" d="M20.3,16.5H10.2c-0.6,0-1-0.4-1-1c0-0.6,0.4-1,1-1h10.1c0.6,0,1,0.4,1,1C21.3,16.1,20.9,16.5,20.3,16.5z"/>
	</g>
	<g>
		<path class="st0" d="M37.2,29.2h-9.5c-0.6,0-1-0.4-1-1s0.4-1,1-1h9.5c0.6,0,1,0.4,1,1S37.8,29.2,37.2,29.2z"/>
	</g>
	<g>
		<path class="st0" d="M37.7,22.9h-3.3c-0.6,0-1-0.4-1-1s0.4-1,1-1h3.3c0.6,0,1,0.4,1,1S38.2,22.9,37.7,22.9z"/>
	</g>
	<g>
		<path class="st0" d="M37.6,16.5H24.5c-0.6,0-1-0.4-1-1c0-0.6,0.4-1,1-1h13.1c0.6,0,1,0.4,1,1C38.6,16.1,38.2,16.5,37.6,16.5z"/>
	</g>
</g>
<g>
	<path class="st0" d="M50.6,52c-0.1,0.3-0.4,0.3-0.6,0.3c0,0,0,0,0,0c0.3,0,0.6,0,0.7-0.3c0.4-0.4,0.4-1.2,0-1.6
		C51,50.8,51,51.5,50.6,52z"/>
	<path class="st0" d="M72.7,71.8L56.1,55.1c-0.7,0.8-1.4,1.5-2.1,2.1l16.6,16.6c0.3,0.3,0.7,0.4,1.1,0.4s0.8-0.1,1.1-0.4
		C73.3,73.3,73.3,72.4,72.7,71.8z"/>
	<path class="st1" d="M46.5,47.7c0.6-0.6,1.5-0.6,2.1,0l5.4,5.4c2.7-3.2,4.3-7.3,4.3-11.9c0-10.2-8.2-18.4-18.4-18.4
		S21.6,31,21.6,41.2c0,10.2,8.2,18.4,18.4,18.4c4.6,0,8.7-1.7,11.9-4.4l-5.4-5.4C45.9,49.2,45.9,48.2,46.5,47.7z M45.5,46.9
		c-0.1,0.1-0.4,0.3-0.7,0.3s-0.6-0.1-0.7-0.3l-4-4L30.8,52c-0.3,0.3-0.4,0.3-0.7,0.3c-0.3,0-0.6-0.1-0.7-0.3c-0.4-0.4-0.4-1.2,0-1.6
		l9.1-9.1l-9.3-9.3c-0.4-0.4-0.4-1.2,0-1.6c0.4-0.4,1.2-0.4,1.6,0l9.3,9.3l9.3-9.3c0.4-0.4,1.2-0.4,1.6,0c0.3,0.4,0.3,1.2-0.1,1.6
		l-9.4,9.3l4,4C46,45.7,46,46.5,45.5,46.9z"/>
	<path class="st1" d="M54,53.1l-5.4-5.4c-0.6-0.6-1.5-0.6-2.1,0s-0.6,1.5,0,2.1l5.4,5.4C52.7,54.6,53.4,53.9,54,53.1z M50.7,52
		c-0.1,0.3-0.4,0.3-0.7,0.3c0,0,0,0,0,0c0,0-0.1,0-0.1,0c-0.3,0-0.6-0.1-0.7-0.3l-2.2-2.2c-0.4-0.4-0.4-1.2,0-1.6
		c0.4-0.4,1.2-0.4,1.6,0l2.2,2.2C51.2,50.8,51.2,51.5,50.7,52z"/>
	<path class="st0" d="M40,61C29,61,20.1,52.1,20.1,41.1c0-10.9,8.8-19.9,19.9-19.9c10.9,0,19.9,9,19.9,19.9c0,5-1.8,9.5-4.9,13
		l1.1,1.1c3.3-3.8,5.3-8.7,5.3-14.1c0-11.8-9.6-21.4-21.4-21.4s-21.4,9.6-21.4,21.4c0,11.8,9.6,21.4,21.4,21.4c5.3,0,10.2-2,14-5.2
		l-1.1-1.1C49.4,59.2,44.9,61,40,61z"/>
	<path class="st0" d="M56.1,55.1L55,54.1c-0.7,0.8-1.4,1.5-2.1,2.1l1.1,1.1C54.7,56.6,55.4,55.9,56.1,55.1z"/>
	<path class="st0" d="M40,21.2c-11.1,0-19.9,9-19.9,19.9C20.1,52.1,29,61,40,61c5,0,9.5-1.8,12.9-4.8l-1-1
		c-3.2,2.7-7.4,4.4-11.9,4.4c-10.2,0-18.4-8.2-18.4-18.4c0-10.2,8.2-18.4,18.4-18.4S58.4,31,58.4,41.2c0,4.5-1.6,8.7-4.3,11.9l1,1
		c3-3.5,4.9-8,4.9-13C59.9,30.1,50.9,21.2,40,21.2z"/>
	<path class="st0" d="M51.9,55.2l1,1c0.8-0.7,1.5-1.4,2.1-2.1l-1-1C53.4,53.9,52.7,54.6,51.9,55.2z"/>
	<path class="st2" d="M41.5,41.2l9.4-9.3c0.4-0.4,0.4-1.2,0.1-1.6c-0.4-0.4-1.2-0.4-1.6,0l-9.3,9.3l-9.3-9.3c-0.4-0.4-1.2-0.4-1.6,0
		c-0.4,0.4-0.4,1.2,0,1.6l9.3,9.3l-9.1,9.1c-0.4,0.4-0.4,1.2,0,1.6c0.1,0.1,0.4,0.3,0.7,0.3c0.3,0,0.4,0,0.7-0.3l9.1-9.1l4,4
		c0.1,0.1,0.4,0.3,0.7,0.3s0.6-0.1,0.7-0.3c0.4-0.4,0.4-1.2,0-1.6L41.5,41.2z M30.1,51.1l9.1-9L30.1,51.1z M29.8,31.2l9.4,9.3
		L29.8,31.2z M50,31.2l-9.3,9.3L50,31.2z M40.7,42l4,4L40.7,42z"/>
	<path class="st2" d="M50.6,52c0.4-0.4,0.4-1.2,0.1-1.6l-2.2-2.2c-0.4-0.4-1.2-0.4-1.6,0c-0.4,0.4-0.4,1.2,0.1,1.6l2.2,2.2
		c0.1,0.1,0.4,0.3,0.7,0.3C50.2,52.3,50.5,52.2,50.6,52z M47.6,48.8l2.2,2.2L47.6,48.8z"/>
	<path class="st2" d="M47,49.7c-0.6-0.4-0.6-1.2-0.1-1.6c-0.4,0.4-0.4,1.2,0,1.6l2.2,2.2c0.1,0.1,0.4,0.3,0.7,0.3c0,0,0.1,0,0.1,0
		c-0.3,0-0.6-0.1-0.7-0.3L47,49.7z"/>
</g>
</svg>
