<?xml version="1.0" encoding="utf-8"?>
<!-- Generator: Adobe Illustrator 21.1.0, SVG Export Plug-In . SVG Version: 6.00 Build 0)  -->
<svg version="1.1" id="Layer_1" xmlns="http://www.w3.org/2000/svg" xmlns:xlink="http://www.w3.org/1999/xlink" x="0px" y="0px"
	 viewBox="0 0 95 80" style="enable-background:new 0 0 95 80;" xml:space="preserve">
<style type="text/css">
	.st0{fill:#ECF0F3;}
	.st1{fill:#3366FF;}
	.st2{fill:#FFFFFF;}
	.st3{fill:#F7F8F9;}
	.st4{fill:#DEE2E6;}
	.st5{fill:#DEE2E6;fill-opacity:0;}
</style>
<title>No Story</title>
<g id="Layer_1-2">
	<path class="st0" d="M50.3,61.7H38c-0.7,0-1.3-0.6-1.3-1.3c0-0.7,0.6-1.3,1.3-1.3h12.2c0.7,0,1.3,0.6,1.3,1.3
		C51.5,61.1,51,61.7,50.3,61.7z"/>
	<path class="st0" d="M34.7,61.7H30c-0.7,0-1.3-0.6-1.3-1.3c0-0.7,0.6-1.3,1.3-1.3h4.8c0.7,0,1.3,0.6,1.3,1.3
		C36,61.1,35.4,61.7,34.7,61.7z"/>
	<path class="st0" d="M65,53.6H53c-0.7,0-1.3-0.6-1.3-1.3c0-0.7,0.6-1.3,1.3-1.3H65c0.7,0,1.3,0.6,1.3,1.3
		C66.3,53.1,65.7,53.6,65,53.6z"/>
	<path class="st0" d="M47.9,53.6H30.2c-0.7,0-1.3-0.6-1.3-1.3c0-0.7,0.6-1.3,1.3-1.3h17.6c0.7,0,1.3,0.6,1.3,1.3
		C49.1,53.1,48.6,53.6,47.9,53.6z"/>
	<path class="st0" d="M65.6,45.6h-4.2c-0.7,0-1.3-0.6-1.3-1.3c0-0.7,0.6-1.3,1.3-1.3h4.2c0.7,0,1.3,0.6,1.3,1.3
		C66.9,45,66.3,45.6,65.6,45.6z"/>
	<path class="st0" d="M56.3,45.6H30.5c-0.7,0-1.3-0.6-1.3-1.3c0-0.7,0.6-1.3,1.3-1.3h25.8c0.7,0,1.3,0.6,1.3,1.3
		C57.5,45,57,45.6,56.3,45.6z"/>
	<path class="st0" d="M65.5,37.5H48.9c-0.7,0-1.3-0.6-1.3-1.3c0-0.7,0.6-1.3,1.3-1.3h16.6c0.7,0,1.3,0.6,1.3,1.3
		C66.8,37,66.2,37.5,65.5,37.5z"/>
	<path class="st0" d="M43.5,37.5H30.7c-0.7,0-1.3-0.6-1.3-1.3c0-0.7,0.6-1.3,1.3-1.3h12.8c0.7,0,1.3,0.6,1.3,1.3
		C44.8,37,44.2,37.5,43.5,37.5z"/>
	<path class="st1" d="M52.6,15.2H31c-0.5,0-1-0.4-1-1c0-0.5,0.4-1,1-1h21.6c0.5,0,1,0.4,1,1C53.5,14.7,53.1,15.2,52.6,15.2z"/>
	<path class="st1" d="M39.2,20.9h-8.3c-0.5,0-1-0.4-1-1c0-0.5,0.4-1,1-1h8.3c0.5,0,1,0.4,1,1C40.1,20.5,39.7,20.9,39.2,20.9z"/>
	<path class="st2" d="M59.3,4v14.1c0.1,2,1.7,3.6,3.7,3.6h12.5"/>
	<path class="st3" d="M61.1,5.8v15c0.1,1.8,1.5,3.2,3.3,3.3h11.4v-2.5"/>
	<path class="st4" d="M75.5,23H63c-2.7,0-4.8-2.2-4.9-4.8V15c0-0.7,0.6-1.3,1.3-1.3s1.3,0.6,1.3,1.3v3.1c0.1,1.3,1.1,2.3,2.4,2.3
		h12.5c0.7,0,1.3,0.6,1.3,1.3C76.8,22.4,76.2,23,75.5,23z"/>
	<path class="st4" d="M59.3,12.9c-0.7,0-1.3-0.6-1.3-1.3V4c0-0.7,0.6-1.3,1.3-1.3s1.3,0.6,1.3,1.3v7.6C60.6,12.3,60,12.9,59.3,12.9z
		"/>
	<path class="st4" d="M20.1,22c-0.7,0-1.3-0.6-1.3-1.3V20c0-0.7,0.6-1.3,1.3-1.3c0.7,0,1.3,0.6,1.3,1.3v0.7
		C21.4,21.5,20.8,22,20.1,22z"/>
	<path class="st4" d="M55.4,77.2H23.2c-2.4,0-4.4-2-4.4-4.4V28.5c0-0.7,0.6-1.3,1.3-1.3c0.7,0,1.3,0.6,1.3,1.3v44.3
		c0,1,0.8,1.9,1.9,1.9h32.2c0.7,0,1.3,0.6,1.3,1.3C56.7,76.6,56.1,77.2,55.4,77.2z"/>
	<path class="st4" d="M75.8,48.6c-0.7,0-1.3-0.6-1.3-1.3l-0.3-25.2L58.7,5.2H23.2c-1,0-1.9,0.8-1.9,1.9v9.3c0,0.7-0.6,1.3-1.3,1.3
		c-0.7,0-1.3-0.6-1.3-1.3V7.1c0-2.4,2-4.4,4.4-4.4h36.1c0.4,0,0.7,0.1,0.9,0.4l16.2,17.8c0.2,0.2,0.3,0.5,0.3,0.9l0.3,25.6
		C77.1,48.1,76.5,48.6,75.8,48.6L75.8,48.6z"/>
	<path class="st3" d="M69.4,73.3l-5.6,2.2c-0.5,0.2-1-0.1-1.2-0.5c-0.1-0.2-0.1-0.4,0-0.7l2.3-5.6c0.2-0.6,0.6-1.1,1-1.6l20.4-20.5
		c0.5-0.5,1.3-0.6,1.8-0.1c0,0,0.1,0.1,0.1,0.1l3.2,3.2c0.5,0.5,0.6,1.3,0.1,1.8c0,0-0.1,0.1-0.1,0.1L71,72.2
		C70.5,72.7,70,73,69.4,73.3z"/>
	<path class="st4" d="M63.5,76.8c-0.6,0-1.1-0.2-1.5-0.6c-0.6-0.6-0.8-1.5-0.5-2.3l2.2-5.6c0.3-0.7,0.7-1.4,1.3-2l20.6-20.5
		c1-1,2.7-1,3.7,0l3.2,3.2c1,1,1,2.7,0,3.7L71.9,73.1c-0.6,0.5-1.3,1-2,1.3l-5.6,2.2C64,76.7,63.7,76.8,63.5,76.8z M87.3,47.6
		L66.8,68c-0.3,0.3-0.6,0.7-0.7,1.2L64.1,74l4.8-1.9l0,0c0.4-0.2,0.8-0.4,1.2-0.8l20.5-20.5L87.3,47.6z"/>
	<rect class="st5" width="95" height="80"/>
</g>
</svg>
