<?xml version="1.0" encoding="UTF-8"?>
<svg width="107px" height="35px" viewBox="0 0 107 35" version="1.1" xmlns="http://www.w3.org/2000/svg" xmlns:xlink="http://www.w3.org/1999/xlink">
    <!-- Generator: Sketch 59 (86127) - https://sketch.com -->
    <title>Group 2</title>
    <desc>Created with Sketch.</desc>
    <g id="Page-1" stroke="none" stroke-width="1" fill="none" fill-rule="evenodd">
        <g id="Artboard" transform="translate(-30.000000, -24.000000)">
            <g id="Group-2" transform="translate(30.000000, 24.000000)">
                <path d="M27.2846735,32.0109265 C24.4916726,33.8978294 21.1245881,34.9996023 17.5,34.9996023 C7.83482955,34.9996023 3.90798505e-14,27.1647727 3.90798505e-14,17.4996023 C3.90798505e-14,13.8723295 1.10409091,10.5027841 2.99369318,7.70835227 L2.99369318,7.70835227 L7.85948864,12.5741477 C7.10181818,14.0528977 6.66670455,15.7241477 6.66670455,17.4996023 C6.66670455,23.4830114 11.5165909,28.3332955 17.5003977,28.3332955 C19.2758523,28.3332955 20.9471023,27.8977841 22.4258523,27.1405114 L22.4258523,27.1405114 L27.2900568,32.0055114 C28.8807386,30.9289205 30.2861607,29.5981088 31.4457108,28.0711839 L31.73,27.685 L31.7147987,27.7087782 C31.7203658,27.7010453 31.7259268,27.6933076 31.7314816,27.6855652 L31.762,27.641 L31.73,27.685 L32.0047159,27.2916477 L27.1401136,22.4274432 C27.8981818,20.9478977 28.3336932,19.27625 28.3336932,17.5 C28.3336932,11.5165909 23.4838068,6.66630682 17.5003977,6.66630682 C15.72375,6.66630682 14.0521023,7.10142045 12.5725568,7.85988636 L12.5725568,7.85988636 L7.70755682,2.99448864 C10.5019886,1.10409091 13.8723295,-1.42108547e-14 17.5003977,-1.42108547e-14 C27.1651705,-1.42108547e-14 35,7.83443182 35,17.4996023 C35,21.1275279 33.8961623,24.4975664 32.0059815,27.2921601 L34.0223864,29.3090795 C35.3249432,30.6108409 35.3249432,32.7215795 34.0223864,34.0229432 C32.7210227,35.3251023 30.611875,35.3251023 29.3093182,34.0233409 L29.3093182,34.0233409 L27.2916477,32.0052727 L27.2916477,32.0052727 Z" id="Combined-Shape-Copy" fill="#3366FF"></path>
                <path d="M48.7370572,11.0531335 L51.8010899,20.9536785 L51.8542234,20.9536785 L55.1042234,11.0531335 L58.8412807,11.0531335 L58.8412807,24 L56.2820163,24 L56.2828466,17.6466703 L56.2952997,16.8712534 C56.3041554,16.4934132 56.3440051,15.4897902 56.4148501,13.8603542 L56.3351499,13.8603542 L52.996594,24 L50.4816076,24 L47.3644414,13.8426431 L47.2847411,13.8426431 L47.3691606,15.4873652 C47.4203943,16.5625986 47.4481456,17.3498621 47.4524151,17.849167 L47.4529973,24 L45,24 L45,11.0531335 L48.7370572,11.0531335 Z M70.6233771,11.0531335 L70.6233771,13.3024523 L65.9122055,13.3024523 L65.9122055,16.1450954 L70.2957205,16.1450954 L70.2957205,18.3944142 L65.9122055,18.3944142 L65.9122055,21.73297 L70.6233771,21.73297 L70.6233771,24 L63.1669739,24 L63.1669739,11.0531335 L70.6233771,11.0531335 Z M78.4558824,11.0531335 C80.5694261,11.0531335 82.2106449,11.6110298 83.3795881,12.7268392 C84.5485312,13.8426486 85.1329941,15.4012162 85.1329941,17.4025886 C85.1329941,19.5338435 84.5263925,21.1662069 83.3131712,22.2997275 C82.0999499,23.4332482 80.3480373,24 78.057381,24 L74.3911685,24 L74.3911685,11.0531335 L78.4558824,11.0531335 Z M91.6283058,11.0531335 L91.6283058,24 L88.8830742,24 L88.8830742,11.0531335 L91.6283058,11.0531335 Z M102.250321,11 L106.837514,24 L103.879748,24 L102.941056,20.9182561 L98.221029,20.9182561 L97.2823369,24 L94.3245712,24 L98.8940535,11 L102.250321,11 Z M78.5975717,13.3024523 L77.1364001,13.3024523 L77.1364001,21.73297 L78.314193,21.73297 C80.9590745,21.73297 82.2814954,20.3131386 82.2814954,17.4734332 C82.2814954,14.6927654 81.0535331,13.3024523 78.5975717,13.3024523 Z M100.657024,13.302098 L100.58547,13.010218 C100.496914,13.3537091 100.333343,13.9271236 100.094755,14.7304669 L100.020928,14.9783678 L98.9117647,18.6158038 L102.285743,18.6158038 L100.758331,13.6676561 C100.732512,13.5782343 100.708897,13.4942703 100.687487,13.4157641 L100.657024,13.302098 L100.58547,13.010218 Z" id="Combined-Shape" fill="#191B1E" fill-rule="nonzero"></path>
            </g>
        </g>
    </g>
</svg>