<?xml version="1.0" encoding="utf-8"?>
<!-- Generator: Adobe Illustrator 21.1.0, SVG Export Plug-In . SVG Version: 6.00 Build 0)  -->
<svg version="1.1" id="Layer_1" xmlns="http://www.w3.org/2000/svg" xmlns:xlink="http://www.w3.org/1999/xlink" x="0px" y="0px"
	 viewBox="0 0 100 35" style="enable-background:new 0 0 100 35;" xml:space="preserve">
<style type="text/css">
	.st0{fill:#3366FF;}
	.st1{fill:#FFFFFF;}
</style>
<g id="Media">
	<g id="publiq-_x28_2_x29_-copy-8">
		<g id="Group">
			<path id="Combined-Shape" class="st0" d="M27.3,31.8c-2.8,1.8-6.1,2.9-9.7,2.9C8,34.8,0.2,27.1,0.2,17.7c0-3.5,1.1-6.8,3-9.6
				L8,12.9c-0.8,1.4-1.2,3.1-1.2,4.8c0,5.8,4.8,10.6,10.8,10.6c1.8,0,3.4-0.4,4.9-1.2L27.3,31.8c1.8-1.2,3.4-2.8,4.7-4.6l-4.8-4.8
				c0.8-1.4,1.2-3.1,1.2-4.8c0-5.8-4.8-10.6-10.8-10.6c-1.8,0-3.4,0.4-4.9,1.2L7.8,3.5c2.8-1.8,6.1-2.9,9.7-2.9
				C27.2,0.6,35,8.2,35,17.7c0,3.5-1.1,6.8-3,9.6l2,2c1.3,1.3,1.3,3.3,0,4.6c-1.3,1.3-3.4,1.3-4.7,0L27.3,31.8z"/>
		</g>
	</g>
	<path id="MEDIA-Copy-3" class="st1" d="M49.2,12.2l3.7,9.8l3.7-9.8h2.9V25h-2.2v-4.2l0.2-5.6L53.7,25h-1.6l-3.8-9.9l0.2,5.6V25
		h-2.2V12.2H49.2z M69.5,19.3h-5.3v3.9h6.1V25h-8.4V12.2h8.3V14h-6.1v3.5h5.3V19.3z M72.2,25V12.2H76c1.1,0,2.1,0.3,3,0.8
		s1.6,1.2,2,2.1c0.5,0.9,0.7,2,0.7,3.2v0.6c0,1.2-0.2,2.3-0.7,3.2s-1.2,1.6-2.1,2.1S77.1,25,75.9,25H72.2z M74.5,14v9.2h1.5
		c1.2,0,2.1-0.4,2.7-1.1s0.9-1.8,1-3.1v-0.7c0-1.4-0.3-2.4-0.9-3.2S77.2,14,76,14H74.5z M86.3,25h-2.2V12.2h2.2V25z M96.2,22h-5
		l-1,3h-2.3l4.8-12.8h2L99.6,25h-2.3L96.2,22z M91.9,20.2h3.7l-1.9-5.3L91.9,20.2z"/>
</g>
</svg>
