<svg xmlns="http://www.w3.org/2000/svg" xmlns:xlink="http://www.w3.org/1999/xlink" version="1.1" id="Layer_1" x="0px" y="0px" viewBox="0 0 484 88" width="132" height="24" style="enable-background:new 0 0 484 88;" xml:space="preserve">
<style type="text/css">
	.st0{fill:#3366FF;}
</style>

<path d="M45.3,3.9L45.3,3.9h-46v14v24v14v28h16v-24c0-2.2,1.8-3.9,3.9-4l26.1,0c14.4,0,26-11.6,26-26C71.3,15.5,59.6,3.9,45.3,3.9z   M45.3,41.9L45.3,41.9L45.3,41.9l-30,0v-24h30h0c6.6,0,12,5.4,12,12C57.3,36.5,51.9,41.9,45.3,41.9z"/>
<path d="M149.3,3.9l0,50c0,9.9-9,18-20,18h-4c-11,0-20-8.1-20-18v0h0v-50h-16l0,50c0,17.7,16.1,32,36,32h4c19.9,0,36-14.3,36-32v0h0  v-50H149.3z"/>
<path d="M187.3,3.9v14v18v14v20v14h48l0,0h0c13.3,0,24-10.7,24-24c0-7-3-13.3-7.8-17.7c3.6-4.1,5.8-9.4,5.8-15.3  c0-12.7-10.3-23-23-23 M203.3,17.9h31c5,0,9,4,9,9s-4,9-9,9l0,0h-31V17.9z M235.3,69.9L235.3,69.9h-32v-16c0-2.2,1.8-4,4-4h28v-0.1  l0,0v0.1c5.5,0,10,4.5,10,10S240.8,69.9,235.3,69.9z"/><polygon points="295.3,69.9 295.3,3.9 279.3,3.9 279.3,83.9 343.3,83.9 343.3,69.9 "/>
<rect x="359.3" y="3.9" width="16" height="80"/>
<g>
	<path class="st0" d="M480.8,73.6l-5.1-5.1c-3.2,4.7-7.2,8.7-11.9,11.9l5.1,5.1c3.3,3.3,8.6,3.3,11.8,0   C484.1,82.1,484.1,76.8,480.8,73.6z"/>
	<path class="st0" d="M439.3-0.1c-9.1,0-17.6,2.8-24.6,7.5l12.2,12.2c3.7-1.9,7.9-3,12.4-3c15,0,27.2,12.2,27.2,27.2   c0,4.5-1.1,8.7-3,12.4l12.2,12.2c-3.2,4.7-7.2,8.7-11.9,11.9l-12.2-12.2c-3.7,1.9-7.9,3-12.4,3c-15,0-27.2-12.2-27.2-27.2   c0-4.5,1.1-8.7,3-12.4l-12.2-12.2c-4.8,7-7.5,15.5-7.5,24.6c0,24.3,19.7,44,44,44s44-19.7,44-44S463.6-0.1,439.3-0.1z"/>
</g>
</svg>