<?xml version="1.0" encoding="UTF-8"?>
<svg width="12px" height="16px" viewBox="0 0 12 16" version="1.1" xmlns="http://www.w3.org/2000/svg" xmlns:xlink="http://www.w3.org/1999/xlink">
    <!-- Generator: Sketch 53.2 (72643) - https://sketchapp.com -->
    <title>Group 10</title>
    <desc>Created with Sketch.</desc>
    <g id="Page-1" stroke="none" stroke-width="1" fill="none" fill-rule="evenodd">
        <g id="Profile_Edit-mode" transform="translate(-358.000000, -281.000000)">
            <g id="Group-17" transform="translate(287.000000, 278.000000)">
                <g id="Group-10" transform="translate(67.000000, 0.000000)">
                    <g id="icon-/-rate">
                        <rect id="Rectangle-Copy-5" x="0" y="0" width="20" height="20"></rect>
                    </g>
                    <g id="Group-11" transform="translate(4.166667, 3.333333)">
                        <path d="M5.625,9.390875 C4.661875,9.390875 3.7525,9.169625 2.938125,8.779625 C2.734375,8.682125 2.5,8.838375 2.5,9.064625 L2.5,14.538375 C2.5,14.759625 2.723125,14.910875 2.92875,14.828375 L5.160625,13.93525 C5.45875,13.8165 5.79125,13.8165 6.089375,13.93525 L8.32125,14.828375 C8.526875,14.910875 8.75,14.759625 8.75,14.538375 L8.75,9.064625 C8.75,8.838375 8.515625,8.682125 8.311875,8.779625 C7.4975,9.169625 6.588125,9.390875 5.625,9.390875" id="Fill-1" fill="#3DC47E"></path>
                        <path d="M8.31175,8.7799375 C7.497375,9.1699375 6.588,9.3911875 5.624875,9.3911875 C4.662375,9.3911875 3.752375,9.1699375 2.938,8.7799375 C2.734875,8.6824375 2.499875,8.8386875 2.499875,9.0643125 L2.499875,10.8036875 C3.328,11.2836875 4.28675,11.5624375 5.312375,11.5624375 C6.608625,11.5624375 7.798625,11.1193125 8.749875,10.3830625 L8.749875,9.0643125 C8.749875,8.8386875 8.5155,8.6824375 8.31175,8.7799375" id="Fill-3" fill="#138146"></path>
                        <path d="M11.25,5.625 C11.25,8.731875 8.731875,11.25 5.625,11.25 C2.518125,11.25 0,8.731875 0,5.625 C0,2.518125 2.518125,0 5.625,0 C8.731875,0 11.25,2.518125 11.25,5.625" id="Fill-5" fill="#3DC47E" fill-rule="nonzero"></path>
                        <path d="M4.6875,7.8125 C4.5275,7.8125 4.3675,7.75125 4.245625,7.629375 L2.995625,6.379375 C2.75125,6.135 2.75125,5.74 2.995625,5.495625 C3.24,5.25125 3.635,5.25125 3.879375,5.495625 L4.6875,6.30375 L6.745625,4.245625 C6.99,4.00125 7.385,4.00125 7.629375,4.245625 C7.87375,4.49 7.87375,4.885 7.629375,5.129375 L5.129375,7.629375 C5.0075,7.75125 4.8475,7.8125 4.6875,7.8125" id="Fill-7" fill="#138146"></path>
                        <path d="M5,7.5 C4.84,7.5 4.68,7.43875 4.558125,7.316875 L3.308125,6.066875 C3.06375,5.8225 3.06375,5.4275 3.308125,5.183125 C3.5525,4.93875 3.9475,4.93875 4.191875,5.183125 L5,5.99125 L7.058125,3.933125 C7.3025,3.68875 7.6975,3.68875 7.941875,3.933125 C8.18625,4.1775 8.18625,4.5725 7.941875,4.816875 L5.441875,7.316875 C5.32,7.43875 5.16,7.5 5,7.5" id="Fill-9" fill="#FFFFFF"></path>
                    </g>
                </g>
            </g>
        </g>
    </g>
</svg>