<?xml version="1.0" encoding="UTF-8"?>
<svg width="40px" height="40px" viewBox="0 0 40 40" version="1.1" xmlns="http://www.w3.org/2000/svg" xmlns:xlink="http://www.w3.org/1999/xlink">
    <!-- Generator: Sketch 54.1 (76490) - https://sketchapp.com -->
    <title>icon / filled / welcome</title>
    <desc>Created with Sketch.</desc>
    <g id="icon-/-filled-/-welcome" stroke="none" stroke-width="1" fill="none" fill-rule="evenodd">
        <rect id="Rectangle" x="0" y="0" width="40" height="40"></rect>
        <g id="Massage" transform="translate(9.000000, 12.000000)">
            <path d="M19.25,0 L2.75,0 C1.23121694,0 0,1.23121694 0,2.75 L0,12.8333333 C0,14.3521164 1.23121694,15.5833333 2.75,15.5833333 L2.98833333,15.5833333 C3.24146384,15.5833333 3.44666667,15.7885362 3.44666667,16.0416667 L3.44666667,18.6175 C3.45027287,18.8742149 3.60655351,19.1040684 3.84395557,19.2018222 C4.08135764,19.299576 4.35417563,19.2464102 4.5375,19.0666667 L7.48916667,16.115 C7.83140443,15.7707112 8.29622122,15.5762134 8.78166667,15.5741667 L19.25,15.5741667 C20.7687831,15.5741667 22,14.3429497 22,12.8241667 L22,2.75 C22,1.23121694 20.7687831,0 19.25,0 Z" id="Shape" fill="#3366FF"></path>
            <path d="M16.5,7.33333333 L3.66666667,7.33333333 C3.16040565,7.33333333 2.75,6.92292769 2.75,6.41666667 C2.75,5.91040565 3.16040565,5.5 3.66666667,5.5 L16.5,5.5 C17.006261,5.5 17.4166667,5.91040565 17.4166667,6.41666667 C17.4166667,6.92292769 17.006261,7.33333333 16.5,7.33333333 Z M11.9166667,10.0833333 C11.9166667,9.57707231 11.506261,9.16666667 11,9.16666667 L3.66666667,9.16666667 C3.16040565,9.16666667 2.75,9.57707231 2.75,10.0833333 C2.75,10.5895944 3.16040565,11 3.66666667,11 L11,11 C11.506261,11 11.9166667,10.5895944 11.9166667,10.0833333 Z" id="Shape" fill="#2C56D3"></path>
            <path d="M17.4166667,6.41666667 L4.58333333,6.41666667 C4.07707231,6.41666667 3.66666667,6.00626102 3.66666667,5.5 C3.66666667,4.99373898 4.07707231,4.58333333 4.58333333,4.58333333 L17.4166667,4.58333333 C17.9229277,4.58333333 18.3333333,4.99373898 18.3333333,5.5 C18.3333333,6.00626102 17.9229277,6.41666667 17.4166667,6.41666667 Z M12.8333333,9.16666667 C12.8333333,8.66040565 12.4229277,8.25 11.9166667,8.25 L4.58333333,8.25 C4.07707231,8.25 3.66666667,8.66040565 3.66666667,9.16666667 C3.66666667,9.67292769 4.07707231,10.0833333 4.58333333,10.0833333 L11.9166667,10.0833333 C12.4229277,10.0833333 12.8333333,9.67292769 12.8333333,9.16666667 Z" id="Shape" fill="#BED1FF"></path>
        </g>
    </g>
</svg>